<svg xmlns="http://www.w3.org/2000/svg" width="40" height="39.646" viewBox="0 0 40 39.646"><g transform="translate(-29 -291.982)"><path d="M19.823,0h.354a19.823,19.823,0,0,1,0,39.646h-.354A19.823,19.823,0,0,1,19.823,0Z" transform="translate(29 291.982)" fill="#00c1ff" opacity="0.154"/><g transform="translate(36.25 299)"><path d="M22.432,17.46a4.975,4.975,0,1,0,3.515,1.457,4.972,4.972,0,0,0-3.515-1.457Zm0,9.075a4.12,4.12,0,1,1,2.9-1.207,4.1,4.1,0,0,1-2.9,1.207Z" transform="translate(-9.68 -9.68)" fill="#46d3f7"/><path d="M21.225,10.512a.684.684,0,0,1-.639-.475,7.734,7.734,0,0,0-.376-.9.684.684,0,0,1,.12-.793,1.532,1.532,0,0,0,0-2.158L19.32,5.178a1.532,1.532,0,0,0-2.161,0,.684.684,0,0,1-.79.116,8.251,8.251,0,0,0-.9-.376.684.684,0,0,1-.475-.639A1.528,1.528,0,0,0,13.463,2.75H12.04a1.528,1.528,0,0,0-1.528,1.528.684.684,0,0,1-.475.639,8.251,8.251,0,0,0-.9.376.684.684,0,0,1-.793-.12,1.532,1.532,0,0,0-2.158,0L5.178,6.183a1.532,1.532,0,0,0,0,2.161.684.684,0,0,1,.116.79,8.251,8.251,0,0,0-.376.9.684.684,0,0,1-.639.475A1.528,1.528,0,0,0,2.75,12.04v1.422a1.528,1.528,0,0,0,1.528,1.528.684.684,0,0,1,.639.475,8.251,8.251,0,0,0,.376.9.684.684,0,0,1-.12.793,1.532,1.532,0,0,0,0,2.158L6.18,20.326a1.528,1.528,0,0,0,2.161,0,.684.684,0,0,1,.79-.116,8.251,8.251,0,0,0,.9.376.684.684,0,0,1,.475.639,1.528,1.528,0,0,0,1.528,1.528H13.46a1.528,1.528,0,0,0,1.528-1.528.684.684,0,0,1,.475-.639,8.25,8.25,0,0,0,.9-.376.684.684,0,0,1,.793.12,1.528,1.528,0,0,0,2.158,0l1.005-1.005a1.532,1.532,0,0,0,0-2.161.684.684,0,0,1-.116-.79,7.733,7.733,0,0,0,.376-.9.684.684,0,0,1,.639-.475,1.528,1.528,0,0,0,1.528-1.528V12.04a1.528,1.528,0,0,0-1.525-1.528Zm.684,2.951a.684.684,0,0,1-.684.684,1.545,1.545,0,0,0-1.45,1.05,6.631,6.631,0,0,1-.342.81,1.549,1.549,0,0,0,.284,1.771.684.684,0,0,1,0,.951l-1,1a.684.684,0,0,1-.954,0,1.546,1.546,0,0,0-1.768-.28,6.63,6.63,0,0,1-.81.342,1.545,1.545,0,0,0-1.05,1.45.684.684,0,0,1-.684.684H12.04a.684.684,0,0,1-.684-.684,1.545,1.545,0,0,0-1.05-1.45,6.63,6.63,0,0,1-.81-.342,1.6,1.6,0,0,0-.684-.161,1.535,1.535,0,0,0-1.081.445.684.684,0,0,1-.951,0l-1-1a.684.684,0,0,1,0-.954,1.546,1.546,0,0,0,.28-1.768,6.63,6.63,0,0,1-.342-.81h0a1.546,1.546,0,0,0-1.45-1.05.684.684,0,0,1-.684-.684V12.04a.684.684,0,0,1,.684-.684,1.546,1.546,0,0,0,1.45-1.05A6.63,6.63,0,0,1,6.06,9.5a1.549,1.549,0,0,0-.284-1.771.684.684,0,0,1,0-.951l1-1a.684.684,0,0,1,.954,0,1.546,1.546,0,0,0,1.768.28,6.631,6.631,0,0,1,.81-.342,1.546,1.546,0,0,0,1.074-1.433.684.684,0,0,1,.684-.684H13.49a.684.684,0,0,1,.684.684,1.546,1.546,0,0,0,1.05,1.45,6.631,6.631,0,0,1,.81.342,1.549,1.549,0,0,0,1.771-.284.684.684,0,0,1,.951,0l1,1a.684.684,0,0,1,0,.954,1.546,1.546,0,0,0-.28,1.768,6.63,6.63,0,0,1,.342.81,1.546,1.546,0,0,0,1.405,1.063.684.684,0,0,1,.684.684Z" fill="#46d3f7"/></g></g></svg>