<svg xmlns="http://www.w3.org/2000/svg" width="24.227" height="26.5" viewBox="0 0 24.227 26.5"><g transform="translate(-4420.5 -2967.25)"><path d="M5.682,12.5h0A5.682,5.682,0,0,1,0,6.818V5.682A5.682,5.682,0,0,1,5.682,0h0a5.682,5.682,0,0,1,5.682,5.682V6.818A5.682,5.682,0,0,1,5.682,12.5Z" transform="translate(4426.932 2968)" fill="none" stroke="currentColor" stroke-linecap="round" stroke-linejoin="round" stroke-miterlimit="10" stroke-width="1.5"/><path d="M22.727,5.577A4.534,4.534,0,0,0,19.393,1.2,31.525,31.525,0,0,0,11.364,0a31.525,31.525,0,0,0-8.03,1.2A4.534,4.534,0,0,0,0,5.577V7.955H22.727Z" transform="translate(4421.25 2985.045)" fill="none" stroke="currentColor" stroke-linecap="round" stroke-linejoin="round" stroke-miterlimit="10" stroke-width="1.5"/></g></svg>