<svg xmlns="http://www.w3.org/2000/svg" width="22" height="22.005" viewBox="0 0 22 22.005"><path d="M14.6.844A.95.95,0,0,1,15.635,0a.954.954,0,0,1,1.033.844V4.549a.95.95,0,0,1-1.033.844A.954.954,0,0,1,14.6,4.549V.844ZM7.209,12.221,6.053,16.106v2.2H4.592v-2.2L3.476,12.223H4.929c.224,1.191.355,1.992.387,2.4.091-.648.236-1.449.441-2.4H7.209Zm.407,0h2.64v1.216H9.2V14.6h.985v1.153H9.2v1.34h1.162v1.216H7.615V12.221Zm6.062,0,.906,6.087H12.966l-.086-1.092h-.571l-.086,1.092H10.586l.8-6.087h2.289Zm-.84,3.917q-.113-1.034-.24-2.563-.234,1.754-.3,2.563Zm2.153-3.917H16.11a8.581,8.581,0,0,1,1.515.086,1.043,1.043,0,0,1,.647.442,2,2,0,0,1,.251,1.132,1.767,1.767,0,0,1-.177.955.923.923,0,0,1-.695.292,1.2,1.2,0,0,1,.632.313.933.933,0,0,1,.2.36,5.6,5.6,0,0,1,.039.9v1.606h-1.47V16.283a1.39,1.39,0,0,0-.077-.605c-.05-.079-.183-.116-.4-.116v2.747H14.99V12.221Zm1.587,1.039v1.354a.685.685,0,0,0,.371-.073c.07-.048.106-.208.106-.476v-.335a.517.517,0,0,0-.1-.381.6.6,0,0,0-.374-.088ZM5.289.844A.95.95,0,0,1,6.322,0,.954.954,0,0,1,7.355.844V4.549a.95.95,0,0,1-1.033.844.954.954,0,0,1-1.033-.844V.844ZM1.354,7.9H20.628V4.058a.5.5,0,0,0-.15-.365.51.51,0,0,0-.365-.15H18.445c-.319,0-.573-.471-.573-.79a.57.57,0,0,1,.573-.573h1.886A1.682,1.682,0,0,1,22,3.849V20.336a1.682,1.682,0,0,1-1.669,1.669H1.671A1.685,1.685,0,0,1,0,20.336V3.849A1.682,1.682,0,0,1,1.669,2.18h2.02a.57.57,0,0,1,.573.573c0,.319-.254.79-.573.79h-1.8a.534.534,0,0,0-.374.15.516.516,0,0,0-.15.374V7.905L1.354,7.9ZM20.628,9.474H1.354V20.112a.534.534,0,0,0,.15.374.516.516,0,0,0,.374.15H20.1a.534.534,0,0,0,.374-.15.516.516,0,0,0,.15-.374V9.474ZM9.019,3.534c-.319,0-.573-.471-.573-.79a.57.57,0,0,1,.573-.573h3.849a.57.57,0,0,1,.573.573c0,.319-.254.79-.573.79Z" fill="#402b8c"/></svg>