<svg xmlns="http://www.w3.org/2000/svg" width="30" height="30" viewBox="0 0 30 30"><g transform="translate(-26 -647)"><circle cx="15" cy="15" r="15" transform="translate(26 647)" fill="#ff3fcb" opacity="0.1"/><g transform="translate(33.468 654.994)"><path d="M9.645.557A.628.628,0,0,1,10.328,0a.63.63,0,0,1,.683.557V3a.628.628,0,0,1-.683.557A.63.63,0,0,1,9.645,3V.557ZM4.762,8.073,4,10.639v1.455H3.033V10.639L2.3,8.074h.959c.148.787.234,1.316.256,1.586.06-.428.156-.957.291-1.586h.959Zm.269,0H6.774v.8h-.7v.768h.651v.762H6.077v.885h.768v.8H5.03V8.073Zm4,0,.6,4.021H8.565l-.057-.722H8.131l-.057.722H6.993l.53-4.021H9.035ZM8.48,10.66q-.075-.683-.159-1.693-.154,1.159-.2,1.693ZM9.9,8.073h.739a5.669,5.669,0,0,1,1,.057.689.689,0,0,1,.427.292,1.322,1.322,0,0,1,.166.748,1.167,1.167,0,0,1-.117.631.61.61,0,0,1-.459.193.789.789,0,0,1,.418.207.616.616,0,0,1,.132.238,3.7,3.7,0,0,1,.026.6v1.061h-.971V10.756a.918.918,0,0,0-.051-.4c-.033-.052-.121-.077-.264-.077v1.815H9.9V8.073Zm1.048.686v.894a.453.453,0,0,0,.245-.049c.046-.032.07-.137.07-.315V9.069a.342.342,0,0,0-.067-.252.4.4,0,0,0-.247-.058ZM3.493.557A.628.628,0,0,1,4.176,0a.63.63,0,0,1,.683.557V3a.628.628,0,0,1-.683.557A.63.63,0,0,1,3.493,3V.557ZM.894,5.216H13.626V2.681a.329.329,0,0,0-.1-.241.337.337,0,0,0-.241-.1h-1.1c-.211,0-.379-.311-.379-.522a.377.377,0,0,1,.379-.379H13.43a1.111,1.111,0,0,1,1.1,1.1V13.433a1.111,1.111,0,0,1-1.1,1.1H1.1a1.113,1.113,0,0,1-1.1-1.1V2.542a1.111,1.111,0,0,1,1.1-1.1H2.437a.377.377,0,0,1,.379.379c0,.211-.168.522-.379.522H1.247a.353.353,0,0,0-.247.1.341.341,0,0,0-.1.247V5.222L.894,5.216ZM13.626,6.258H.894v7.027a.353.353,0,0,0,.1.247.341.341,0,0,0,.247.1H13.279a.353.353,0,0,0,.247-.1.341.341,0,0,0,.1-.247V6.258ZM5.958,2.334c-.211,0-.379-.311-.379-.522a.377.377,0,0,1,.379-.379H8.5a.377.377,0,0,1,.379.379c0,.211-.168.522-.379.522Z" fill="#ff3fcb"/></g></g></svg>