<svg xmlns="http://www.w3.org/2000/svg" xmlns:xlink="http://www.w3.org/1999/xlink" width="55" height="55" viewBox="0 0 55 55"><defs><linearGradient id="a" x1="0.5" x2="0.5" y2="1" gradientUnits="objectBoundingBox"><stop offset="0" stop-color="#7359d1"/><stop offset="1" stop-color="#201646"/></linearGradient></defs><g transform="translate(-51 -302)"><circle cx="27.5" cy="27.5" r="27.5" transform="translate(51 302)" fill="url(#a)"/><path d="M22.853,28.426l-1.484-.989V18.666h7.037a1.407,1.407,0,0,0,1.407-1.407V15.851a1.407,1.407,0,0,0-1.407-1.407H26.259a7.047,7.047,0,0,0-6.3-6.3v-.74h.7a.7.7,0,0,0,0-1.407H17.851a.7.7,0,1,0,0,1.407h.7v.74a7.047,7.047,0,0,0-6.3,6.3H9.407A1.407,1.407,0,0,0,8,15.851v1.407a1.407,1.407,0,0,0,1.407,1.407h7.74v8.771l-1.484.989a1.407,1.407,0,0,0-.627,1.171v.327a1.407,1.407,0,0,0,1.407,1.407h5.629a1.407,1.407,0,0,0,1.407-1.407V29.6a1.407,1.407,0,0,0-.627-1.171ZM19.258,9.518a5.635,5.635,0,0,1,5.581,4.926H13.678A5.635,5.635,0,0,1,19.258,9.518Zm-9.851,7.74V15.851h19v1.407ZM22.073,29.924H16.444V29.6l1.484-.989a1.407,1.407,0,0,0,.627-1.171V18.666h1.407v8.771a1.407,1.407,0,0,0,.627,1.171l1.484.989Z" transform="translate(60.629 309)" fill="#fcfcfc"/><path d="M41.818,26.133,42.95,17.6a1.407,1.407,0,0,0-1.39-1.6h-.764a1.407,1.407,0,0,0-1.355,1.042l-1.82,6.8H33.282a2.1,2.1,0,0,0-2.035,1.582l-.2.78h0a1.407,1.407,0,0,0,1.337,1.759l-1.359,5.462a.7.7,0,0,0,.514.853.676.676,0,0,0,.167.018.7.7,0,0,0,.683-.533l1.444-5.8h5.754l1.284,5.782a.7.7,0,0,0,.686.551.716.716,0,0,0,.153-.017.7.7,0,0,0,.535-.839l-1.3-5.869A2.105,2.105,0,0,0,41.818,26.133Zm-9.411.422.2-.78a.7.7,0,0,1,.673-.526h4.878a.7.7,0,0,0,.68-.521l1.956-7.32h.76l-1.131,8.537a.7.7,0,0,1-.69.61Z" transform="translate(53.813 306.037)" fill="#fcfcfc"/><path d="M11.667,27.418a1.4,1.4,0,0,0,.251-1.215h0l-.2-.778a2.1,2.1,0,0,0-2.036-1.583H5.343l-1.82-6.8A1.407,1.407,0,0,0,2.167,16H1.4a1.407,1.407,0,0,0-1.39,1.593l1.131,8.54a2.1,2.1,0,0,0,.817,1.393L.647,33.439a.7.7,0,1,0,1.374.305l1.286-5.782H9.06l1.444,5.8a.7.7,0,0,0,.685.533.676.676,0,0,0,.17-.021.7.7,0,0,0,.513-.853l-1.362-5.459h.049A1.394,1.394,0,0,0,11.667,27.418Zm-8.438-.863a.7.7,0,0,1-.69-.61L1.4,17.407h.76l1.96,7.318a.7.7,0,0,0,.68.521H9.68a.7.7,0,0,1,.673.526l.2.782Z" transform="translate(63 306.037)" fill="#fcfcfc"/></g></svg>