<svg xmlns="http://www.w3.org/2000/svg" xmlns:xlink="http://www.w3.org/1999/xlink" width="50" height="50" viewBox="0 0 50 50"><defs><linearGradient id="a" x1="0.5" x2="0.5" y2="1" gradientUnits="objectBoundingBox"><stop offset="0" stop-color="#6c4dda" stop-opacity="0.6"/><stop offset="1" stop-color="#522ed2"/></linearGradient></defs><g transform="translate(-46 -459)"><circle cx="25" cy="25" r="25" transform="translate(46 459)" opacity="0.1" fill="url(#a)"/><path d="M12,24A12,12,0,0,1,3.515,3.515,12,12,0,1,1,20.485,20.485,11.922,11.922,0,0,1,12,24ZM5.811,10.688a.751.751,0,0,0-.53.216L4.22,11.947a.728.728,0,0,0,0,1.043l4.874,4.794a.76.76,0,0,0,1.061,0L18.78,9.3a.73.73,0,0,0,0-1.043L17.72,7.216a.76.76,0,0,0-1.061,0L9.625,14.134,6.341,10.9A.753.753,0,0,0,5.811,10.688Z" transform="translate(59 472)" fill="#1dbf73"/></g></svg>