<svg xmlns="http://www.w3.org/2000/svg" width="26.5" height="26.5" viewBox="0 0 26.5 26.5"><g transform="translate(-94.25 -1725.25)"><g transform="translate(92 1723)"><path d="M11,13H5a2.006,2.006,0,0,1-2-2V5A2.006,2.006,0,0,1,5,3h6a2.006,2.006,0,0,1,2,2v6A2.006,2.006,0,0,1,11,13Z" fill="none" stroke="currentColor" stroke-linecap="round" stroke-linejoin="round" stroke-miterlimit="10" stroke-width="1.5"/><path d="M11,29H5a2.006,2.006,0,0,1-2-2V21a2.006,2.006,0,0,1,2-2h6a2.006,2.006,0,0,1,2,2v6A2.006,2.006,0,0,1,11,29Z" transform="translate(0 -1)" fill="none" stroke="currentColor" stroke-linecap="round" stroke-linejoin="round" stroke-miterlimit="10" stroke-width="1.5"/><line x2="12" transform="translate(16 5)" fill="none" stroke="currentColor" stroke-linecap="round" stroke-linejoin="round" stroke-miterlimit="10" stroke-width="1.5"/><line x2="7" transform="translate(16.263 8.769)" fill="none" stroke="currentColor" stroke-linecap="round" stroke-linejoin="round" stroke-miterlimit="10" stroke-width="1.5"/><line x2="12" transform="translate(16 20.308)" fill="none" stroke="currentColor" stroke-linecap="round" stroke-linejoin="round" stroke-miterlimit="10" stroke-width="1.5"/><line x2="7" transform="translate(16.263 24)" fill="none" stroke="currentColor" stroke-linecap="round" stroke-linejoin="round" stroke-miterlimit="10" stroke-width="1.5"/><path d="M6,7,8,9l3-3" fill="none" stroke="currentColor" stroke-linecap="round" stroke-linejoin="round" stroke-miterlimit="10" stroke-width="1.5"/></g></g></svg>