<svg xmlns="http://www.w3.org/2000/svg" width="35" height="35" viewBox="0 0 35 35"><g transform="translate(-43 -267.5)"><circle cx="17.5" cy="17.5" r="17.5" transform="translate(43 267.5)" fill="#ff3fcb" opacity="0.1"/><g transform="translate(-425.059 -353.294)"><path d="M31.806,18.587A5.809,5.809,0,0,0,37.59,13.2h.021V7.806A5.806,5.806,0,0,0,26,7.806V13.2h.021A5.809,5.809,0,0,0,31.806,18.587Zm0-12.441a4.981,4.981,0,0,1,4.617,3.13,5.784,5.784,0,0,0-9.234,0A4.981,4.981,0,0,1,31.806,6.147ZM27.188,7.618a4.971,4.971,0,0,1,9.234,0,5.784,5.784,0,0,0-9.234,0Zm4.617-4.788a4.981,4.981,0,0,1,4.617,3.13,5.784,5.784,0,0,0-9.234,0A4.981,4.981,0,0,1,31.806,2.829Zm0,4.976a4.976,4.976,0,1,1-4.976,4.976A4.982,4.982,0,0,1,31.806,7.806Z" transform="translate(456.952 628)" fill="#ff3fcb"/><path d="M34.147,26.294A4.147,4.147,0,1,0,30,22.147,4.152,4.152,0,0,0,34.147,26.294Zm0-7.464a3.317,3.317,0,1,1-3.317,3.317A3.321,3.321,0,0,1,34.147,18.829Z" transform="translate(454.611 618.635)" fill="#ff3fcb"/><path d="M38.244,25.732a.415.415,0,0,1-.415-.415H37a1.242,1.242,0,0,0,.829,1.168v.491h.829v-.491a1.241,1.241,0,0,0-.415-2.412.415.415,0,1,1,.415-.415h.829a1.242,1.242,0,0,0-.829-1.168V22h-.829v.491a1.241,1.241,0,0,0,.415,2.412.415.415,0,1,1,0,.829Z" transform="translate(450.514 616.294)" fill="#ff3fcb"/><path d="M16,32.073a1.246,1.246,0,0,1,1.244,1.244h.829a1.246,1.246,0,0,1,1.244-1.244v-.829A1.246,1.246,0,0,1,18.073,30h-.829A1.246,1.246,0,0,1,16,31.244Zm1.659-.842a2.068,2.068,0,0,0,.428.428,2.068,2.068,0,0,0-.428.428,2.069,2.069,0,0,0-.428-.428A2.069,2.069,0,0,0,17.659,31.231Z" transform="translate(462.806 611.611)" fill="#ff3fcb"/><path d="M3.244,22.317h.829a1.246,1.246,0,0,1,1.244-1.244v-.829A1.246,1.246,0,0,1,4.073,19H3.244A1.246,1.246,0,0,1,2,20.244v.829A1.246,1.246,0,0,1,3.244,22.317Zm.415-2.086a2.069,2.069,0,0,0,.428.428,2.068,2.068,0,0,0-.428.428,2.068,2.068,0,0,0-.428-.428A2.068,2.068,0,0,0,3.659,20.231Z" transform="translate(471 618.05)" fill="#ff3fcb"/><path d="M17.073,2h-.829A1.246,1.246,0,0,1,15,3.244v.829a1.246,1.246,0,0,1,1.244,1.244h.829a1.246,1.246,0,0,1,1.244-1.244V3.244A1.246,1.246,0,0,1,17.073,2Zm-.415,2.086a2.068,2.068,0,0,0-.428-.428,2.068,2.068,0,0,0,.428-.428,2.068,2.068,0,0,0,.428.428A2.068,2.068,0,0,0,16.659,4.086Z" transform="translate(463.391 628)" fill="#ff3fcb"/><path d="M16.829,16v.829H16v.829h.829v.829h.829v-.829h.829v-.829h-.829V16Z" transform="translate(462.806 619.806)" fill="#ff3fcb"/></g></g></svg>