<svg xmlns="http://www.w3.org/2000/svg" width="35" height="35" viewBox="0 0 35 35"><g transform="translate(-43 -137.5)"><circle cx="17.5" cy="17.5" r="17.5" transform="translate(43 137.5)" fill="#46d3f7" opacity="0.1"/><g transform="translate(50.032 147.774)"><path d="M2.5,14.444A2.522,2.522,0,0,1,0,11.905V5.3H20v6.6a2.523,2.523,0,0,1-2.5,2.539Zm12.223-4.231a1.111,1.111,0,1,0,1.111-1.129A1.121,1.121,0,0,0,14.722,10.213Zm-2.778,0a1.111,1.111,0,1,0,1.111-1.129A1.121,1.121,0,0,0,11.944,10.213ZM0,3.046V2.539A2.522,2.522,0,0,1,2.5,0h15A2.523,2.523,0,0,1,20,2.539v.508Z" transform="translate(0 0.612)" fill="#46d3f7"/></g></g></svg>