<svg xmlns="http://www.w3.org/2000/svg" xmlns:xlink="http://www.w3.org/1999/xlink" width="70" height="70" viewBox="0 0 70 70"><defs><clipPath id="a"><rect width="36.693" height="40.078" fill="#fff"/></clipPath></defs><g transform="translate(-194 -275)"><path d="M35,0A35,35,0,1,1,0,35,35,35,0,0,1,35,0Z" transform="translate(194 275)" fill="#402b8c"/><g transform="translate(206.7 287.403)"><g transform="translate(3.8 1.8)"><g clip-path="url(#a)"><path d="M14.115,36.634l-.542-5.89a.827.827,0,0,0-.88-.745H5.111a.881.881,0,0,0-.88.745l-.542,5.89a5.163,5.163,0,0,0,4.6,5.619V47.8a2.288,2.288,0,0,0-.812.406l-1.354.948a.98.98,0,0,0,.609,1.76h4.4a1.018,1.018,0,0,0,.948-.677.964.964,0,0,0-.338-1.083l-1.354-.948a4.55,4.55,0,0,0-.812-.406V42.253a5.535,5.535,0,0,0,3.25-1.625,5.385,5.385,0,0,0,1.286-3.994ZM5.449,31.083H12.49l.406,4.4H5.043Zm4.2,18.076.88.609H7.345l.88-.609a1.365,1.365,0,0,1,.745-.2,1.306,1.306,0,0,1,.677.2Zm2.234-9.342A4.039,4.039,0,0,1,8.9,41.1a4.153,4.153,0,0,1-2.979-1.286A3.907,3.907,0,0,1,4.908,36.77V36.7H12.9v.068a3.747,3.747,0,0,1-1.015,3.046Zm0,0" transform="translate(-3.757 -10.909)" fill="#fff"/></g><g clip-path="url(#a)"><path d="M52.915,36.634l-.542-5.89a.827.827,0,0,0-.88-.745H43.911a.881.881,0,0,0-.88.745l-.542,5.89a5.163,5.163,0,0,0,4.6,5.619V47.8a2.288,2.288,0,0,0-.812.406l-1.354.948a.98.98,0,0,0,.609,1.76h4.4a1.018,1.018,0,0,0,.948-.677.964.964,0,0,0-.338-1.083l-1.354-.948a4.55,4.55,0,0,0-.812-.406V42.253a5.535,5.535,0,0,0,3.25-1.625,5.684,5.684,0,0,0,1.286-3.994Zm-8.733-5.551h7.041l.406,4.4H43.843Zm4.265,18.076.88.609H46.213l.88-.609a1.365,1.365,0,0,1,.745-.2,1.285,1.285,0,0,1,.609.2Zm2.234-9.342A4.039,4.039,0,0,1,47.7,41.1a4.153,4.153,0,0,1-2.979-1.286,3.907,3.907,0,0,1-1.015-3.046V36.7H51.7v.068a3.99,3.99,0,0,1-1.015,3.046Zm0,0" transform="translate(-16.29 -10.909)" fill="#fff"/></g></g><path d="M31.952,16.726a7.1,7.1,0,0,1-1.625-4.468V9.347h.068A1.141,1.141,0,0,0,31.546,8.2V7.384a1.086,1.086,0,0,0-.88-1.083V3.254A1.358,1.358,0,0,0,29.311,1.9H26.536a1.358,1.358,0,0,0-1.354,1.354V6.3a1.158,1.158,0,0,0-.88,1.083V8.2a1.141,1.141,0,0,0,1.151,1.151h.068v2.911A6.859,6.859,0,0,1,23.9,16.726,8.091,8.091,0,0,0,22,21.939a.609.609,0,1,0,1.219,0,6.859,6.859,0,0,1,1.625-4.468,8.091,8.091,0,0,0,1.9-5.213V9.347h2.437v2.911a8.228,8.228,0,0,0,1.9,5.213A7.1,7.1,0,0,1,32.7,21.939v2.5H27.213a1.285,1.285,0,0,0-1.286,1.286v6.093a1.285,1.285,0,0,0,1.286,1.286H32.7v2.369a.609.609,0,1,0,1.219,0V21.939a8.547,8.547,0,0,0-1.963-5.213ZM26.6,3.051h2.776a.18.18,0,0,1,.2.2V6.3H26.468V3.254c-.068-.135.068-.2.135-.2ZM25.588,8.2V7.451h4.874V8.2ZM32.7,31.958H27.213a.146.146,0,0,1-.135-.135V25.73a.146.146,0,0,1,.135-.135H32.7Zm0,0" transform="translate(-5.879 -0.032)" fill="#fff"/><path d="M33.3,48.14a.607.607,0,0,0-.609.609v1.422a1.041,1.041,0,0,1-1.015,1.015H24.434a1.041,1.041,0,0,1-1.015-1.015V35.209a.609.609,0,1,0-1.219,0V50.171A2.254,2.254,0,0,0,24.434,52.4h7.311a2.254,2.254,0,0,0,2.234-2.234V48.749a.72.72,0,0,0-.677-.609Zm0,0" transform="translate(-5.943 -10.595)" fill="#fff"/></g></g></svg>