<svg xmlns="http://www.w3.org/2000/svg" width="45" height="45" viewBox="0 0 45 45"><g transform="translate(-303 -471)"><g transform="translate(11.857 11.857)"><g transform="translate(291 459)"><circle cx="22.5" cy="22.5" r="22.5" transform="translate(0.143 0.143)" fill="#fe2121" opacity="0.1"/><path d="M18.444,20.256H23.2v2.376H18.444Zm0-9.5H26.76v2.376H18.444Zm0,4.752h7.128V17.88H18.444ZM4.188,22.632a2.383,2.383,0,0,0,2.376,2.376h7.128a2.383,2.383,0,0,0,2.376-2.376V10.752H4.188ZM17.256,7.188H13.692L12.5,6H7.752L6.564,7.188H3V9.564H17.256Z" transform="translate(8.088 7.464)" fill="#fe2121"/></g></g></g></svg>