<svg xmlns="http://www.w3.org/2000/svg" width="12" height="9.089" viewBox="0 0 12 9.089">
  <g id="Group_4787" data-name="Group 4787" transform="translate(-194.94 -329)">
    <g id="Location" transform="translate(194.94 329)">
      <g id="start" transform="translate(0 3.87)">
        <path id="Path" d="M.41,0H.2A.21.21,0,0,0,0,.237.21.21,0,0,0,.2.474h.2a.21.21,0,0,0,.2-.237A.21.21,0,0,0,.41,0Z" transform="translate(10.034 4.744)" fill="#402b8c"/>
        <path id="Path-2" data-name="Path" d="M.685,0H.236A.224.224,0,0,0,0,.237.224.224,0,0,0,.236.474H.685A.224.224,0,0,0,.921.237.224.224,0,0,0,.685,0Z" transform="translate(7.516 4.744)" fill="#402b8c"/>
        <path id="Path-3" data-name="Path" d="M.685,0H.236A.224.224,0,0,0,0,.237.224.224,0,0,0,.236.474H.685A.237.237,0,0,0,.921.237.224.224,0,0,0,.685,0Z" transform="translate(8.805 4.744)" fill="#402b8c"/>
        <path id="Path-4" data-name="Path" d="M.236,0A.224.224,0,0,0,0,.237.224.224,0,0,0,.236.474H.685A.224.224,0,0,0,.921.237.224.224,0,0,0,.685,0Z" transform="translate(3.095)" fill="#402b8c"/>
        <path id="Path-5" data-name="Path" d="M.232.791A.227.227,0,0,0,.461.64a.5.5,0,0,1,.114-.3.2.2,0,0,0-.069-.3A.233.233,0,0,0,.187.1,1.01,1.01,0,0,0,0,.554.215.215,0,0,0,.187.791Z" transform="translate(0 3.005)" fill="#402b8c"/>
        <path id="Path-6" data-name="Path" d="M.089.4A2.442,2.442,0,0,1,.328.677.289.289,0,0,0,.543.791a.1.1,0,0,0,.1-.046.225.225,0,0,0,.1-.319A1.843,1.843,0,0,0,.376.04.266.266,0,0,0,.042.085.237.237,0,0,0,.089.4Z" transform="translate(5.456 0.316)" fill="#402b8c"/>
        <path id="Path-7" data-name="Path" d="M.663.368A.666.666,0,0,1,.417.11.214.214,0,0,0,.1.04.238.238,0,0,0,.038.368,1.121,1.121,0,0,0,.4.744.307.307,0,0,0,.529.791.267.267,0,0,0,.73.7.238.238,0,0,0,.663.368Z" transform="translate(0.307 4.27)" fill="#402b8c"/>
        <path id="Path-8" data-name="Path" d="M0,.237A.224.224,0,0,0,.236.474H.685A.224.224,0,0,0,.921.237.224.224,0,0,0,.685,0H.236A.224.224,0,0,0,0,.237Z" transform="translate(4.274)" fill="#402b8c"/>
        <path id="Path-9" data-name="Path" d="M.921.237A.224.224,0,0,0,.685,0H.236A.224.224,0,0,0,0,.237.224.224,0,0,0,.236.474H.685A.237.237,0,0,0,.921.237Z" transform="translate(2.063 2.372)" fill="#402b8c"/>
        <path id="Path-10" data-name="Path" d="M.686.431A.213.213,0,0,0,.921.216.213.213,0,0,0,.686,0H.522A1.969,1.969,0,0,0,.169.043.221.221,0,0,0,0,.3.244.244,0,0,0,.24.474.084.084,0,0,1,.287.453.87.87,0,0,1,.522.431H.686Z" transform="translate(0.921 2.372)" fill="#402b8c"/>
        <path id="Path-11" data-name="Path" d="M.918.183A.258.258,0,0,0,.635,0,.419.419,0,0,1,.471.026H.235A.217.217,0,0,0,0,.25.217.217,0,0,0,.235.474H.471A1.107,1.107,0,0,0,.73.452.246.246,0,0,0,.918.183Z" transform="translate(4.568 2.372)" fill="#402b8c"/>
        <path id="Path-12" data-name="Path" d="M.445.013A.213.213,0,0,0,.174.19.946.946,0,0,1,.039.544.3.3,0,0,0,.084.9.3.3,0,0,0,.22.949a.187.187,0,0,0,.158-.1A1.791,1.791,0,0,0,.6.317.244.244,0,0,0,.445.013Z" transform="translate(5.755 1.423)" fill="#402b8c"/>
        <path id="Path-13" data-name="Path" d="M.921.237A.224.224,0,0,0,.685,0H.236A.224.224,0,0,0,0,.237.224.224,0,0,0,.236.474H.685A.224.224,0,0,0,.921.237Z" transform="translate(3.39 2.372)" fill="#402b8c"/>
        <path id="Path-14" data-name="Path" d="M.685,0H.236A.224.224,0,0,0,0,.237.224.224,0,0,0,.236.474H.685A.237.237,0,0,0,.921.237.224.224,0,0,0,.685,0Z" transform="translate(5.011 4.744)" fill="#402b8c"/>
        <path id="Path-15" data-name="Path" d="M.685,0H.236A.224.224,0,0,0,0,.237.224.224,0,0,0,.236.474H.685A.224.224,0,0,0,.921.237.224.224,0,0,0,.685,0Z" transform="translate(3.832 4.744)" fill="#402b8c"/>
        <path id="Path-16" data-name="Path" d="M.685,0H.236A.224.224,0,0,0,0,.237.224.224,0,0,0,.236.474H.685A.237.237,0,0,0,.921.237.224.224,0,0,0,.685,0Z" transform="translate(2.653 4.744)" fill="#402b8c"/>
        <path id="Path-17" data-name="Path" d="M.685,0H.236A.224.224,0,0,0,0,.237.224.224,0,0,0,.236.474H.709A.219.219,0,0,0,.921.237.224.224,0,0,0,.685,0Z" transform="translate(1.382 4.744)" fill="#402b8c"/>
        <path id="Path-18" data-name="Path" d="M.685,0H.236A.224.224,0,0,0,0,.237.224.224,0,0,0,.236.474H.685A.224.224,0,0,0,.921.237.224.224,0,0,0,.685,0Z" transform="translate(6.19 4.744)" fill="#402b8c"/>
        <path id="Path-19" data-name="Path" d="M.2,0A.21.21,0,0,0,0,.237.21.21,0,0,0,.2.474h.2a.21.21,0,0,0,.2-.237A.21.21,0,0,0,.41,0Z" transform="translate(2.066)" fill="#402b8c"/>
      </g>
      <path id="Shape" d="M2.626,6.629a.152.152,0,0,1-.106-.043C2.495,6.562,0,4.151,0,2.683A2.719,2.719,0,0,1,.207,1.639,2.681,2.681,0,0,1,.77.787,2.618,2.618,0,0,1,1.6.212a2.572,2.572,0,0,1,2.044,0,2.618,2.618,0,0,1,.834.575,2.681,2.681,0,0,1,.563.853,2.719,2.719,0,0,1,.207,1.044c0,1.468-2.495,3.878-2.52,3.9A.152.152,0,0,1,2.626,6.629Zm0-5.051a.947.947,0,1,0,.927.947A.938.938,0,0,0,2.626,1.578Z" transform="translate(6.747 1.755)" fill="#402b8c"/>
      <path id="Shape-2" data-name="Shape" d="M1.866,4.513a.155.155,0,0,1-.1-.04,10.325,10.325,0,0,1-.908-.951,5.6,5.6,0,0,1-.589-.833A1.764,1.764,0,0,1,0,1.868a1.866,1.866,0,0,1,3.732,0,1.764,1.764,0,0,1-.265.821,5.6,5.6,0,0,1-.589.833,10.325,10.325,0,0,1-.908.951A.155.155,0,0,1,1.866,4.513Zm0-3.268a.623.623,0,1,0,.622.623A.623.623,0,0,0,1.866,1.245Z" transform="translate(0 0)" fill="#402b8c"/>
    </g>
  </g>
</svg>
