<svg xmlns="http://www.w3.org/2000/svg" width="30" height="30" viewBox="0 0 30 30"><g transform="translate(-26 -569)"><circle cx="15" cy="15" r="15" transform="translate(26 569)" fill="#ff3fcb" opacity="0.1"/><path d="M64.343,52.856H80.125a.343.343,0,0,0,.343-.343V51.14a.343.343,0,0,0-.343-.343h-.686v-.686a.343.343,0,0,0-.343-.343H78.066a.343.343,0,0,0-.343.343V50.8H75.13l1.657-1.6.02-.021a2.315,2.315,0,0,0,.573-1.525V44.568a2.743,2.743,0,0,0-2.254-2.7l-.343-.062-.361-.075v-.5a1.775,1.775,0,0,0,1.629-2.011l-.422-3.1A3.612,3.612,0,0,0,72.04,33h-.073a3.513,3.513,0,0,0-3.5,3.195l-.17,1.874-2.781,4.026a1.611,1.611,0,0,0,1.324,2.528H68.8v.267a1.1,1.1,0,0,0,.178.6l-.066.11a2.2,2.2,0,0,0,.332,2.7l.27.27.224,1.121-.2,1.111H68.8v-.686a.343.343,0,0,0-.343-.343H67.431a.343.343,0,0,0-.343.343V50.8H66.4v-.686a.343.343,0,0,0-.343-.343H65.029a.343.343,0,0,0-.343.343V50.8h-.343A.343.343,0,0,0,64,51.14v1.372a.343.343,0,0,0,.343.343Zm14.066-2.4h.343V50.8h-.343Zm-3.761-7.977.009,0,.347.063a2.057,2.057,0,0,1,1.69,2.025v3.087a1.629,1.629,0,0,1-.394,1.063l-1.865,1.8-.567.283H71.548v-.131l.5-.248a.343.343,0,0,0,.153-.153l.177-.354a.256.256,0,0,1,.23-.142h1a.343.343,0,0,0,.243-.1L75.221,48.3a2.2,2.2,0,0,0,.332-2.7l-.066-.11a1.1,1.1,0,0,0,.178-.6v-.878a1.106,1.106,0,0,0-1.105-1.105h-.138V42.43Zm-1.917.808a.343.343,0,0,0-.46.153,3.614,3.614,0,0,0-.368,1.332l-.7-.361V43.249a.343.343,0,0,0-.343-.343h-.174l0-.51.535-.066a.343.343,0,0,0,.3-.29l.118-.8a2.373,2.373,0,0,0,1.261-.017l.114.731a.343.343,0,0,0,.275.284l.451.085v.58h-.129a.343.343,0,0,0-.343.343v1.206l-.674.326a2.924,2.924,0,0,1,.294-1.035.343.343,0,0,0-.153-.46Zm-3.241,1.6v-.878a.419.419,0,0,1,.419-.419h.61v1.715h-.61a.419.419,0,0,1-.419-.419Zm-.119-3.366a3.739,3.739,0,0,0,.321.283l-.542.031Zm5.094-3.762a.515.515,0,1,1,0,1.029h-.017l.013-1.029Zm-.727,3.172v.7l-.086-.016-.106-.682c.044-.029.088-.059.131-.091l.061-.049v.1a.348.348,0,0,0,0,.045Zm.012-1.212a1.714,1.714,0,0,1-2.888.227v-1.88a.429.429,0,1,0,.058-.805,2.482,2.482,0,0,1,.879-1.415l.5-.4a2.259,2.259,0,0,1,1.136,1.057l.346,1.01Zm-2.888,1.169q.059.041.12.078l-.106.715-.014,0Zm3.088,3.8a.337.337,0,0,0,0-.044V43.592h.343a.344.344,0,0,0,.007.067l.328,1.642a.413.413,0,0,1-.068.006h-.61Zm1.165-4.517a1.09,1.09,0,0,1-.688.365l.013-1.064h.026a1.2,1.2,0,0,0,.878-.383l.03.218a1.09,1.09,0,0,1-.259.864Zm-5.052-5.749a2.82,2.82,0,0,1,1.906-.739h.073a2.946,2.946,0,0,1,1.935.721,2.915,2.915,0,0,1,.975,1.806l.142,1.038a1.194,1.194,0,0,0-.627-.177h-.113l-.278-.813a.341.341,0,0,0-.018-.042,2.943,2.943,0,0,0-1.713-1.485.343.343,0,0,0-.323.058l-.65.52A3.166,3.166,0,0,0,70.175,37.8v3.518a3.092,3.092,0,0,1-1.233-2.748l.21-2.307a2.82,2.82,0,0,1,.909-1.831Zm-4.046,9a.925.925,0,0,1,.067-.94l2.193-3.174a3.789,3.789,0,0,0,.64,1.668l-.735,1.044a.343.343,0,0,0,.281.54h.02L70,42.475l0,.431h-.093a1.106,1.106,0,0,0-1.1,1.029H66.842a.92.92,0,0,1-.827-.511ZM69.5,45.952l.017-.028a1.1,1.1,0,0,0,.388.071h.953a.343.343,0,0,0,.343-.343v-.468l.876.453a.343.343,0,0,0,.307,0l.876-.423v.434a.343.343,0,0,0,.343.343h.953a1.1,1.1,0,0,0,.388-.071l.017.028a1.519,1.519,0,0,1-.229,1.858l-.243.243H69.974l-.243-.243a1.519,1.519,0,0,1-.229-1.858Zm.923,3.663-.175-.876h3.556l-.343.343H72.6a.938.938,0,0,0-.844.522l-.126.252-.584.292a.343.343,0,0,0-.19.307V50.8h-.62l.186-1.055a.343.343,0,0,0,0-.127Zm-2.652.839h.343V50.8h-.343Zm-2.4,0h.343V50.8h-.343Zm-.686,1.029h15.1v.686h-15.1Z" transform="translate(-31 540.144)" fill="#ff3fcb"/></g></svg>