<svg xmlns="http://www.w3.org/2000/svg" xmlns:xlink="http://www.w3.org/1999/xlink" width="40" height="40" viewBox="0 0 40 40"><defs><clipPath id="a"><path d="M8,22H4a1,1,0,0,1-1-1V14H1a1,1,0,0,1-1-1V9A1,1,0,0,1,1,8H3V6A6.007,6.007,0,0,1,9,0h3a1,1,0,0,1,1,1V5a1,1,0,0,1-1,1H9V8h3a1,1,0,0,1,.97,1.242l-1,4A1,1,0,0,1,11,14H9v7A1,1,0,0,1,8,22ZM2,10v2H4a1,1,0,0,1,1,1v7H7V13a1,1,0,0,1,1-1H10.22l.5-2H8A1,1,0,0,1,7,9V6A2,2,0,0,1,9,4h2V2H9A4,4,0,0,0,5,6V9a1,1,0,0,1-1,1Z" transform="translate(6 1)" fill="#ff3fcb"/></clipPath><filter id="b" x="-53.5" y="-34" width="144" height="144" filterUnits="userSpaceOnUse"><feOffset dy="18" input="SourceAlpha"/><feGaussianBlur stdDeviation="20" result="c"/><feFlood flood-color="#6b67d2" flood-opacity="0.349"/><feComposite operator="in" in2="c"/><feComposite in="SourceGraphic"/></filter></defs><g transform="translate(-112 -666)"><circle cx="20" cy="20" r="20" transform="translate(112 666)" fill="#fff"/><g transform="translate(124.5 675)"><g transform="translate(-6 -1)"><g clip-path="url(#a)"><g transform="matrix(1, 0, 0, 1, -6.5, -8)" filter="url(#b)"><rect width="24" height="24" transform="translate(6.5 8)" fill="#ff3fcb"/></g></g></g></g></g></svg>