<svg xmlns="http://www.w3.org/2000/svg" width="40" height="39.646" viewBox="0 0 40 39.646"><g transform="translate(-29 -500)"><rect width="40" height="39.646" rx="19.823" transform="translate(29 500)" fill="rgba(0,118,255,0.6)" opacity="0.1"/><g transform="translate(33.587 503.504)"><path d="M24.582,28.191a.589.589,0,0,0-.589.589v4.038a.589.589,0,0,0,1.177,0V29.329a4.792,4.792,0,1,0-5.381-4.753.589.589,0,0,0,1.177,0,3.615,3.615,0,1,1,3.615,3.615Z" transform="translate(-8.735 -8.679)" fill="#0076ff"/><path d="M15.847,5.5A10.4,10.4,0,0,0,13.8,26.1a.589.589,0,1,0,.232-1.154,9.223,9.223,0,1,1,3.626,0,.591.591,0,1,0,.114,1.177h.118A10.4,10.4,0,0,0,15.847,5.5Z" transform="translate(0 0)" fill="#0076ff"/><path d="M31.095,55.5a.589.589,0,1,0,.226.044.589.589,0,0,0-.226-.044Z" transform="translate(-15.247 -30.379)" fill="#0076ff"/></g></g></svg>