<svg xmlns="http://www.w3.org/2000/svg" width="40" height="39.646" viewBox="0 0 40 39.646"><g transform="translate(-29 -435.982)"><rect width="40" height="39.646" rx="19.823" transform="translate(29 435.982)" fill="rgba(108,77,218,0.6)" opacity="0.1"/><g transform="translate(30.484 436.66)"><path d="M26.9,12.963a5.657,5.657,0,0,0-8.375.49,5.657,5.657,0,0,0-8.375-.49,5.581,5.581,0,0,0,0,7.881l7.924,7.92a.635.635,0,0,0,.9,0l7.924-7.92a5.6,5.6,0,0,0,0-7.881Zm-.9,6.978-7.472,7.468-7.472-7.468a4.3,4.3,0,1,1,6.075-6.075l.946.946a.643.643,0,0,0,.9,0l.946-.946A4.3,4.3,0,0,1,25.993,19.941Z" fill="#6c4dda"/></g></g></svg>