<svg xmlns="http://www.w3.org/2000/svg" width="40" height="40" viewBox="0 0 40 40"><g transform="translate(-169 -666)"><circle cx="20" cy="20" r="20" transform="translate(169 666)" fill="#fff"/><path d="M24,17.621a5.764,5.764,0,0,1,4.021,1.549L30.956,16.3A9.992,9.992,0,0,0,24,13.6a10.392,10.392,0,0,0-9.291,5.731l3.363,2.612A6.286,6.286,0,0,1,24,17.621Z" transform="translate(164.708 662)" fill="#ff3fcb"/><path d="M33.984,24.231a8.9,8.9,0,0,0-.22-2.126H24v3.859h5.732a5.083,5.083,0,0,1-2.126,3.374l3.282,2.542A10.168,10.168,0,0,0,33.984,24.231Z" transform="translate(164.708 662)" fill="#ff3fcb"/><path d="M18.084,26.057A6.4,6.4,0,0,1,17.737,24a6.728,6.728,0,0,1,.335-2.057l-3.363-2.612a10.378,10.378,0,0,0,0,9.337Z" transform="translate(164.708 662)" fill="#ff3fcb"/><path d="M24,34.4a9.912,9.912,0,0,0,6.887-2.519l-3.282-2.542A6.156,6.156,0,0,1,24,30.379a6.261,6.261,0,0,1-5.916-4.322l-3.363,2.611A10.375,10.375,0,0,0,24,34.4Z" transform="translate(164.708 662)" fill="#ff3fcb"/></g></svg>