<svg xmlns="http://www.w3.org/2000/svg" width="37.693" height="21.223" viewBox="0 0 37.693 21.223">
  <g id="_3592325401545197272" data-name="3592325401545197272" transform="translate(-2.742 -22.298)">
    <path id="Path_19376" data-name="Path 19376" d="M35.927,50.437a8.9,8.9,0,0,0-8.887,8.887.6.6,0,0,0,.6.6H44.209a.6.6,0,0,0,.6-.6A8.9,8.9,0,0,0,35.927,50.437Zm-7.655,8.282a7.679,7.679,0,0,1,15.31,0Z" transform="translate(-14.363 -16.657)" fill="#402b8c" stroke="#402b8c" stroke-width="0.5"/>
    <path id="Path_19377" data-name="Path 19377" d="M41.009,32.982a5.217,5.217,0,1,0-5.217-5.217A5.223,5.223,0,0,0,41.009,32.982Zm0-9.226A4.009,4.009,0,1,1,37,27.765,4.014,4.014,0,0,1,41.009,23.756Z" transform="translate(-19.59)" fill="#402b8c" stroke="#402b8c" stroke-width="0.5"/>
    <path id="Path_19378" data-name="Path 19378" d="M9.753,56.922a5.557,5.557,0,0,1,2.815.764.6.6,0,1,0,.612-1.042,6.764,6.764,0,0,0-10.189,5.83.6.6,0,0,0,.6.6h7.657a.6.6,0,1,0,0-1.208H4.233A5.561,5.561,0,0,1,9.753,56.922Z" transform="translate(0 -19.809)" fill="#402b8c" stroke="#402b8c" stroke-width="0.5"/>
    <path id="Path_19379" data-name="Path 19379" d="M13.533,41.357A4.033,4.033,0,1,0,9.5,37.324,4.038,4.038,0,0,0,13.533,41.357Zm0-6.858a2.825,2.825,0,1,1-2.825,2.825A2.828,2.828,0,0,1,13.533,34.5Z" transform="translate(-3.887 -6.416)" fill="#402b8c" stroke="#402b8c" stroke-width="0.5"/>
    <path id="Path_19380" data-name="Path 19380" d="M73.028,55.714a6.77,6.77,0,0,0-3.427.931.6.6,0,1,0,.612,1.042,5.556,5.556,0,0,1,8.336,4.185H71.53a.6.6,0,1,0,0,1.208h7.656a.6.6,0,0,0,.6-.6A6.769,6.769,0,0,0,73.028,55.714Z" transform="translate(-39.604 -19.809)" fill="#402b8c" stroke="#402b8c" stroke-width="0.5"/>
    <path id="Path_19381" data-name="Path 19381" d="M72.839,41.357A4.033,4.033,0,1,0,68.8,37.324,4.038,4.038,0,0,0,72.839,41.357Zm0-6.858a2.825,2.825,0,1,1-2.825,2.825A2.828,2.828,0,0,1,72.839,34.5Z" transform="translate(-39.307 -6.416)" fill="#402b8c" stroke="#402b8c" stroke-width="0.5"/>
  </g>
</svg>
