<svg xmlns="http://www.w3.org/2000/svg" width="40" height="39.646" viewBox="0 0 40 39.646"><g transform="translate(-29 -503.611)"><rect width="40" height="39.646" rx="19.823" transform="translate(29 503.611)" fill="#1db7ae" opacity="0.16"/><g transform="translate(40 515)"><g transform="translate(0.402 0.402)"><path d="M9.127,14.528,3.5,8.5H14.753Z" transform="translate(-1.089 -2.07)" fill="none" stroke="#1db7ae" stroke-linecap="round" stroke-linejoin="round" stroke-miterlimit="10" stroke-width="1"/><path d="M.5.5H4.519L1.3,3.715H4.519L8.94,9.342" transform="translate(-0.5 -0.5)" fill="none" stroke="#1db7ae" stroke-linecap="round" stroke-linejoin="round" stroke-miterlimit="10" stroke-width="1"/><line y2="6.028" transform="translate(8.038 12.459)" fill="none" stroke="#1db7ae" stroke-linecap="round" stroke-linejoin="round" stroke-miterlimit="10" stroke-width="1"/><line x2="4.823" transform="translate(5.627 18.487)" fill="none" stroke="#1db7ae" stroke-linecap="round" stroke-linejoin="round" stroke-miterlimit="10" stroke-width="1"/><path d="M19.108,6.867l1.608-1V4.255l-1.608-1-1.608,1v.8" transform="translate(-3.836 -1.04)" fill="none" stroke="#1db7ae" stroke-linecap="round" stroke-linejoin="round" stroke-miterlimit="10" stroke-width="1"/><path d="M18.715,8.234,21.93,6.426V2.809L18.715,1,15.5,2.809V5.421" transform="translate(-3.443 -0.598)" fill="none" stroke="#1db7ae" stroke-linecap="round" stroke-linejoin="round" stroke-miterlimit="10" stroke-width="1"/></g><rect width="19" height="19" fill="none"/></g></g></svg>