<svg xmlns="http://www.w3.org/2000/svg" width="20" height="25" viewBox="0 0 20 25"><path d="M37.443,12.4a.587.587,0,0,0-.567.605V23.789H30.8v-6.77a.587.587,0,0,0-.567-.605H25.791a.587.587,0,0,0-.567.605v5.368a.568.568,0,1,0,1.133,0V17.624h3.305v6.165H19.143V8.972L28.01,1.381l9.079,7.773a.542.542,0,0,0,.8-.094.634.634,0,0,0-.088-.851L28.364.133a.538.538,0,0,0-.709,0L18.222,8.209a.622.622,0,0,0-.212.472V24.394a.587.587,0,0,0,.567.605H37.443a.587.587,0,0,0,.567-.605V13A.587.587,0,0,0,37.443,12.4Z" transform="translate(-18.01 0)" fill="#000"/></svg>