<svg xmlns="http://www.w3.org/2000/svg" width="16.607" height="10.176" viewBox="0 0 16.607 10.176"><g transform="translate(-8 -23)"><path d="M24.314,23H8.293A.286.286,0,0,0,8,23.278V32.9a.286.286,0,0,0,.293.278H24.314a.286.286,0,0,0,.293-.278V23.278A.286.286,0,0,0,24.314,23Zm-.293,9.621H8.586V23.555H24.021Z"/><path d="M16.787,56.248h5.542a.287.287,0,0,0,.287-.287,3.059,3.059,0,0,0-6.116,0A.287.287,0,0,0,16.787,56.248Zm2.771-2.676a2.456,2.456,0,0,1,2.467,2.1H17.091A2.456,2.456,0,0,1,19.558,53.572Z" transform="translate(-6.876 -24.6)"/><path d="M25.624,36.249A1.624,1.624,0,1,0,24,34.624,1.624,1.624,0,0,0,25.624,36.249Zm0-2.676a1.051,1.051,0,1,1-1.051,1.051A1.051,1.051,0,0,1,25.624,33.573Z" transform="translate(-12.857 -8.177)"/><path d="M50.287,39.573H56.02a.287.287,0,1,0,0-.573H50.287a.287.287,0,0,0,0,.573Z" transform="translate(-33.611 -13.045)"/><path d="M50.287,53.573H56.02a.287.287,0,1,0,0-.573H50.287a.287.287,0,0,0,0,.573Z" transform="translate(-33.611 -24.46)"/></g></svg>