<svg xmlns="http://www.w3.org/2000/svg" width="13" height="8.464" viewBox="0 0 13 8.464"><path d="M19.952,29.446a.224.224,0,0,0,.012-.069V21.365a.222.222,0,0,0-.012-.07l0-.009a.225.225,0,0,0-.042-.069l0,0,0,0a.227.227,0,0,0-.067-.049l-.005,0a.223.223,0,0,0-.077-.019H7.176a.226.226,0,0,0-.078.019l0,0a.224.224,0,0,0-.068.049l0,0,0,0a.226.226,0,0,0-.042.07l0,.009a.222.222,0,0,0-.012.07v8.012a.224.224,0,0,0,.012.071l0,.009a.226.226,0,0,0,.042.07l0,0,0,0a.229.229,0,0,0,.024.021l.011.009a.21.21,0,0,0,.032.018l.008,0a.226.226,0,0,0,.089.018H19.738a.224.224,0,0,0,.089-.018l.012-.007a.231.231,0,0,0,.027-.015l.013-.011a.207.207,0,0,0,.022-.019l0,0,0,0a.226.226,0,0,0,.041-.069A.082.082,0,0,0,19.952,29.446ZM7.417,21.878l3.807,3.478L7.417,28.861Zm7.8,3.307a.216.216,0,0,0-.045.033c0,.005-.007.013-.011.018l-1.7,1.552-5.691-5.2H19.155Zm-3.661.477,1.752,1.6a.226.226,0,0,0,.305,0l1.73-1.581,3.807,3.469H7.77Zm4.123-.287,3.829-3.5v6.987Z" transform="translate(-6.964 -21.139)" fill="#262b2e"/></svg>