<svg xmlns="http://www.w3.org/2000/svg" width="12" height="14.683" viewBox="0 0 12 14.683"><g transform="translate(-9.4 -7.8)"><g transform="translate(9.4 7.8)"><path d="M15.419,29.528A5.884,5.884,0,0,1,9.4,23.759v-1.69A2.221,2.221,0,0,1,11.662,19.9h7.476A2.22,2.22,0,0,1,21.4,22.068v1.69A5.874,5.874,0,0,1,15.419,29.528ZM11.662,20.6a1.467,1.467,0,0,0-1.5,1.433v1.69a5.131,5.131,0,0,0,5.252,5.035,5.131,5.131,0,0,0,5.252-5.035v-1.69a1.467,1.467,0,0,0-1.5-1.433Z" transform="translate(-9.4 -14.845)" fill="#262b2e"/><path d="M21.981,13.649a.372.372,0,0,1-.365-.418v-1.17a3.246,3.246,0,0,0-2.993-3.426,3.246,3.246,0,0,0-2.993,3.426v1.17a.368.368,0,1,1-.73,0v-1.17A4.036,4.036,0,0,1,18.623,7.8a4.036,4.036,0,0,1,3.723,4.261v1.17A.424.424,0,0,1,21.981,13.649Z" transform="translate(-12.602 -7.8)" fill="#262b2e"/><path d="M24.518,32.033a.4.4,0,0,1-.418-.418v-2.3a.418.418,0,1,1,.836,0v2.3A.419.419,0,0,1,24.518,32.033Z" transform="translate(-18.499 -20.987)" fill="#262b2e"/></g></g></svg>