<svg xmlns="http://www.w3.org/2000/svg" width="11.825" height="16.52" viewBox="0 0 11.825 16.52"><g transform="translate(-19.822 -186.428)"><path d="M13.26,13.311c2.112-2.774,5.565-7.416,5.565-8.116,0-.284,0-.475-2.232-.56L18.778.848,18.176.5,15.8,4.612c-.759-.017-1.7-.026-2.891-.026C7,4.587,7,4.8,7,5.2c0,.7,3.453,5.342,5.565,8.116v3.013H10.478v.7h4.869v-.7H13.261Zm2.934-7.984c.857.027,1.477.065,1.823.1-.2.368-.627,1.026-1.2,1.851H15.067Zm-8.394.1c.688-.08,2.5-.15,5.113-.15.939,0,1.773.009,2.49.024L14.263,7.282H9C8.423,6.447,7.99,5.788,7.8,5.432ZM9.493,7.977h4.369l-.9,1.565.6.348,1.1-1.913h1.665c-.967,1.365-2.2,3.042-3.417,4.642C11.7,11.019,10.46,9.34,9.493,7.977Z" transform="translate(12.822 185.928)" fill="#262b2e"/></g></svg>