<svg xmlns="http://www.w3.org/2000/svg" width="12" height="12.512" viewBox="0 0 12 12.512"><g transform="translate(-5 -1)"><path d="M13.045,7.119a2.342,2.342,0,0,0,1.227-1.948V3.085C14.273,1.934,13.052,1,11.545,1H10.455c-1.506,0-2.727.934-2.727,2.085V5.171A2.342,2.342,0,0,0,8.955,7.119C6.583,7.776,5,9.5,5,11.427v.834a1.483,1.483,0,0,0,1.636,1.251h8.727A1.483,1.483,0,0,0,17,12.261v-.834c0-1.929-1.583-3.651-3.955-4.308ZM8.818,5.171V3.085a1.483,1.483,0,0,1,1.636-1.251h1.091a1.483,1.483,0,0,1,1.636,1.251V5.171A1.978,1.978,0,0,1,11,6.839,1.978,1.978,0,0,1,8.818,5.171Zm7.091,7.09a.494.494,0,0,1-.545.417H6.636a.494.494,0,0,1-.545-.417v-.834c0-2.073,2.2-3.754,4.909-3.754s4.909,1.681,4.909,3.754Z" fill="#262b2e"/></g></svg>