<svg xmlns="http://www.w3.org/2000/svg" width="16.272" height="21.45" viewBox="0 0 16.272 21.45"><g transform="translate(-25 -304)"><g transform="translate(20 302)"><g transform="translate(5 2)"><path d="M14.066,21.971H6.477A1.479,1.479,0,0,1,5,20.486v-17A1.483,1.483,0,0,1,6.481,2h8.134l4.438,5.178v8.58a4.069,4.069,0,1,1-4.987,6.213Zm-.486-.74h-7.1a.741.741,0,0,1-.74-.736V3.476a.741.741,0,0,1,.736-.736h7.4V6.434a1.475,1.475,0,0,0,1.478,1.484h2.96v7.55a4.07,4.07,0,0,0-4.734,5.764ZM14.616,3.109V6.431a.744.744,0,0,0,.737.746h2.739L14.616,3.109ZM17.2,22.71a3.328,3.328,0,1,0-3.328-3.328A3.328,3.328,0,0,0,17.2,22.71Zm-1.109-3.7v.74h.74v.74h-.74v.74h2.219v-.74h-.74V19.012Zm.74-1.479v.74h.74v-.74Z" transform="translate(-5 -2)" fill="#262b2e" fill-rule="evenodd"/></g></g></g></svg>