<svg xmlns="http://www.w3.org/2000/svg" width="14" height="14" viewBox="0 0 14 14"><path d="M13.579,10.845,10.954,9.091a.95.95,0,0,0-1.222.017c-1.022.838-1.628.6-1.727.548a6.45,6.45,0,0,1-1.966-1.4,8.012,8.012,0,0,1-1.7-2.257,1.615,1.615,0,0,1,.481-1.712.938.938,0,0,0,.087-1.231C4.7,2.715,4.7,2.715,4.53,2.467s-.5-.734-1.375-2.046A.92.92,0,0,0,2.333,0a1.027,1.027,0,0,0-.79.377l-.875.875A1.694,1.694,0,0,0,0,2.625c0,.5.725,3.774,4.168,7.206S10.87,14,11.372,14h.019a1.709,1.709,0,0,0,1.357-.669l.875-.875a1.026,1.026,0,0,0,.377-.79A.919.919,0,0,0,13.579,10.845Zm-.369,1.2-.875.875c-.491.491-.7.494-.964.5-.036,0-3.177-.371-6.791-4C1,5.846.584,2.653.583,2.625c0-.259,0-.463.5-.96L1.956.79c.154-.153.215-.206.377-.206a.347.347,0,0,1,.337.162c.878,1.314,1.21,1.8,1.377,2.049s.164.242.373.571a.365.365,0,0,1-.02.519,2.175,2.175,0,0,0-.578,2.372,8.523,8.523,0,0,0,1.8,2.409,7.023,7.023,0,0,0,2.117,1.513,1.381,1.381,0,0,0,.6.127A2.8,2.8,0,0,0,10.1,9.559a.348.348,0,0,1,.23-.1.565.565,0,0,1,.3.115l2.625,1.754a.346.346,0,0,1,.162.337C13.417,11.829,13.364,11.891,13.21,12.044Z" fill="#262b2e"/></svg>