<svg xmlns="http://www.w3.org/2000/svg" xmlns:xlink="http://www.w3.org/1999/xlink" width="40" height="40" viewBox="0 0 40 40"><defs><clipPath id="a"><path d="M16,22H6a6.007,6.007,0,0,1-6-6V6A6.007,6.007,0,0,1,6,0H16a6.007,6.007,0,0,1,6,6V16A6.006,6.006,0,0,1,16,22ZM6,2A4.005,4.005,0,0,0,2,6V16a4,4,0,0,0,4,4H16a4,4,0,0,0,4-4V6a4,4,0,0,0-4-4Zm5.044,13.957a5,5,0,0,1,0-10,5.028,5.028,0,0,1,.736.054,5,5,0,0,1,1.515,9.412A5.023,5.023,0,0,1,11.045,15.957Zm0-8a3,3,0,0,0,0,6,3,3,0,0,0,2.967-3.441,2.984,2.984,0,0,0-2.528-2.527A3.016,3.016,0,0,0,11.042,7.957Z" transform="translate(1 1)" fill="#ff3fcb"/></clipPath><filter id="b" x="-52" y="-33" width="144" height="144" filterUnits="userSpaceOnUse"><feOffset dy="18" input="SourceAlpha"/><feGaussianBlur stdDeviation="20" result="c"/><feFlood flood-color="#6b67d2" flood-opacity="0.349"/><feComposite operator="in" in2="c"/><feComposite in="SourceGraphic"/></filter></defs><g transform="translate(-226 -666)"><circle cx="20" cy="20" r="20" transform="translate(226 666)" fill="#fff"/><g transform="translate(234 675)"><path d="M16,22H6a6.007,6.007,0,0,1-6-6V6A6.007,6.007,0,0,1,6,0H16a6.007,6.007,0,0,1,6,6V16A6.006,6.006,0,0,1,16,22ZM6,2A4.005,4.005,0,0,0,2,6V16a4,4,0,0,0,4,4H16a4,4,0,0,0,4-4V6a4,4,0,0,0-4-4Zm5.044,13.957a5,5,0,0,1,0-10,5.028,5.028,0,0,1,.736.054,5,5,0,0,1,1.515,9.412A5.023,5.023,0,0,1,11.045,15.957Zm0-8a3,3,0,0,0,0,6,3,3,0,0,0,2.967-3.441,2.984,2.984,0,0,0-2.528-2.527A3.016,3.016,0,0,0,11.042,7.957Z" transform="translate(1 1)" fill="#ff3fcb"/><g clip-path="url(#a)"><g transform="matrix(1, 0, 0, 1, -8, -9)" filter="url(#b)"><rect width="24" height="24" transform="translate(8 9)" fill="#ff3fcb"/></g></g></g></g></svg>