<svg xmlns="http://www.w3.org/2000/svg" xmlns:xlink="http://www.w3.org/1999/xlink" width="55" height="55" viewBox="0 0 55 55"><defs><linearGradient id="a" x1="0.5" x2="0.5" y2="1" gradientUnits="objectBoundingBox"><stop offset="0" stop-color="#00c1ff"/><stop offset="1" stop-color="#402b8c"/></linearGradient></defs><g transform="translate(-57 -567)"><circle cx="27.5" cy="27.5" r="27.5" transform="translate(57 567)" fill="url(#a)"/><path d="M31.173,18.586a6.72,6.72,0,0,0-2.084-1.416A4.595,4.595,0,1,0,23.06,10.3a5.654,5.654,0,0,0-10.978,0,4.595,4.595,0,1,0-6.027,6.874A6.733,6.733,0,0,0,2,23.341v3.185a3.543,3.543,0,0,0,3.539,3.539h4.973a3.522,3.522,0,0,0,2.813,1.416h8.493a3.522,3.522,0,0,0,2.813-1.416H29.6a3.543,3.543,0,0,0,3.539-3.539V23.341a6.678,6.678,0,0,0-1.97-4.754Zm-4.754-8.34a3.189,3.189,0,1,1-2.251.934,3.185,3.185,0,0,1,2.251-.934Zm-3.789,7.541a7.773,7.773,0,0,0-2.116-1.3,5.7,5.7,0,0,0,1.6-1.459,4.613,4.613,0,0,0,1.642,2.142,6.793,6.793,0,0,0-1.124.613ZM17.571,7.415a4.251,4.251,0,1,1-3,1.245,4.247,4.247,0,0,1,3-1.245ZM12.513,17.787a6.793,6.793,0,0,0-1.124-.613,4.613,4.613,0,0,0,1.642-2.142,5.7,5.7,0,0,0,1.6,1.459,7.773,7.773,0,0,0-2.116,1.3ZM5.539,13.432a3.189,3.189,0,1,1,.934,2.251A3.185,3.185,0,0,1,5.539,13.432Zm0,15.217a2.123,2.123,0,0,1-2.123-2.123V23.341a5.3,5.3,0,0,1,8.09-4.515,7.741,7.741,0,0,0-1.72,4.869v4.247a3.543,3.543,0,0,0,.071.708Zm18.4-.708a2.123,2.123,0,0,1-2.123,2.123H13.325A2.123,2.123,0,0,1,11.2,27.941V23.694a6.37,6.37,0,1,1,12.74,0Zm7.786-1.416A2.123,2.123,0,0,1,29.6,28.649H25.286a3.543,3.543,0,0,0,.071-.708V23.694a7.741,7.741,0,0,0-1.72-4.869,5.3,5.3,0,0,1,8.09,4.515Z" transform="translate(67.528 575.069)" fill="#fff"/></g></svg>