<svg xmlns="http://www.w3.org/2000/svg" width="18" height="12.9" viewBox="0 0 18 12.9"><path d="M19.1,23.2a.891.891,0,0,0-.309.058,1.6,1.6,0,0,0-.891-1.371,1.19,1.19,0,0,0,.3-.787v-.9a1.2,1.2,0,1,0-2.4,0v.9a1.193,1.193,0,0,0,.412.9,1.627,1.627,0,0,0-.707,1.239,1.024,1.024,0,0,0,0,.113v.15H14a.888.888,0,0,0-.3.056,1.883,1.883,0,0,0-.2-.821,1.857,1.857,0,0,0-1.477-1.02A1.186,1.186,0,0,0,12.2,21.1v-.9a1.2,1.2,0,1,0-2.4,0v.9a1.186,1.186,0,0,0,.174.614A1.857,1.857,0,0,0,8.5,22.733a1.88,1.88,0,0,0-.2.822A.888.888,0,0,0,8,23.5H6.5v-.15a.92.92,0,0,0,0-.1A1.644,1.644,0,0,0,5.788,22a1.192,1.192,0,0,0,.412-.9v-.9a1.2,1.2,0,1,0-2.4,0v.9a1.19,1.19,0,0,0,.3.787,1.6,1.6,0,0,0-.891,1.372A.891.891,0,0,0,2.9,23.2a.9.9,0,0,0-.9.9V28a.9.9,0,0,0,.9.9h.9v1.8H2.9a.3.3,0,0,0-.3.3v.3h3V31a.3.3,0,0,0-.3-.3H4.4V28.9H5.9a.89.89,0,0,0,.3-.055V31.6a.3.3,0,0,0,.3.3H8.6a.3.3,0,0,0,.3-.3V31a.9.9,0,0,0-.9-.9V27.4a1.5,1.5,0,0,0-1.5-1.5v-.6H7.755a.89.89,0,0,0-.055.3.9.9,0,0,0,.9.9h.9v5.1a.3.3,0,0,0,.3.3h2.4a.3.3,0,0,0,.3-.3V26.5h.9a.9.9,0,0,0,.9-.9.89.89,0,0,0-.055-.3H15.5v.6A1.5,1.5,0,0,0,14,27.4v2.7a.9.9,0,0,0-.9.9v.6a.3.3,0,0,0,.3.3h2.1a.3.3,0,0,0,.3-.3V28.845a.89.89,0,0,0,.3.055h1.5v1.8h-.9a.3.3,0,0,0-.3.3v.3h3V31a.3.3,0,0,0-.3-.3h-.9V28.9h.9A.9.9,0,0,0,20,28V24.1A.9.9,0,0,0,19.1,23.2Zm-2.7-3a.6.6,0,1,1,1.2,0v.9a.6.6,0,0,1-1.2,0ZM14,24.1h.3v.6h-.6v-.3A.3.3,0,0,1,14,24.1Zm-3.6-3.9a.6.6,0,1,1,1.2,0v.9a.6.6,0,1,1-1.2,0ZM8.9,23.571A1.271,1.271,0,0,1,10.171,22.3h1.658a1.264,1.264,0,0,1,1.137.7,1.277,1.277,0,0,1,.134.569V24.7h-.6v-.9h-.6v.9H10.1v-.9H9.5v.9H8.9ZM7.1,24.1v.6H5.3a.3.3,0,0,1-.3-.3V23.35a.45.45,0,0,1,.9,0v.45a.3.3,0,0,0,.3.3ZM4.4,20.2a.6.6,0,1,1,1.2,0v.9a.6.6,0,0,1-1.2,0Zm1.5,8.1h-3a.3.3,0,0,1-.3-.3V24.1a.3.3,0,0,1,.6,0v3.3a.3.3,0,0,0,.3.3H5.9a.3.3,0,0,1,0,.6ZM8.3,31v.3H6.8v-.6H8A.3.3,0,0,1,8.3,31Zm-.9-3.6v2.7H6.8V28a.9.9,0,0,0-.9-.9H3.8v-.6H6.5A.9.9,0,0,1,7.4,27.4ZM5.9,25.9H3.8V23.35a1.036,1.036,0,0,1,1.35-1,1.048,1.048,0,0,0-.75,1V24.4a.9.9,0,0,0,.9.9h.6Zm1.8-1.8H8a.3.3,0,0,1,.3.3v.3H7.7Zm4.2,7.2H10.1V26.5h1.8Zm1.8-5.7a.3.3,0,0,1-.3.3H8.6a.3.3,0,0,1,0-.6h4.8A.3.3,0,0,1,13.7,25.6Zm1.2-1.5h.9a.3.3,0,0,0,.3-.3v-.45a.45.45,0,0,1,.9,0V24.4a.3.3,0,0,1-.3.3H14.9Zm1.2,1.2h.6a.9.9,0,0,0,.9-.9V23.35a1.048,1.048,0,0,0-.75-1,1.046,1.046,0,0,1,1.35,1V25.9H16.1Zm-1.5,2.1a.9.9,0,0,1,.9-.9h2.7v.6H16.1a.9.9,0,0,0-.9.9v2.1h-.6Zm.6,3.9H13.7V31a.3.3,0,0,1,.3-.3h1.2ZM19.4,28a.3.3,0,0,1-.3.3h-3a.3.3,0,0,1,0-.6h2.4a.3.3,0,0,0,.3-.3V24.1a.3.3,0,1,1,.6,0Z" transform="translate(-2 -19)" fill="#402b8c"/></svg>