<svg xmlns="http://www.w3.org/2000/svg" width="70" height="70" viewBox="0 0 70 70"><g transform="translate(-25 -275)"><path d="M35,0A35,35,0,1,1,0,35,35,35,0,0,1,35,0Z" transform="translate(25 275)" fill="#ff3fcb"/><path d="M37.822,23a.638.638,0,0,0-.451-1.088H30.783l5.326-10.252a.638.638,0,0,0-1.131-.587L29.342,21.909H20.051A8.021,8.021,0,0,0,6.3,16.851H6.27a.045.045,0,0,1-.026.038A8,8,0,0,0,6.13,27.86a.578.578,0,0,0,.4.425,8,8,0,0,0,10.626.361l6.822,6.831v10.66H18.244a.638.638,0,0,0,0,1.275H31.421a.638.638,0,1,0,0-1.275H25.257V35.562ZM12.506,15.725a6.763,6.763,0,0,1,6.27,6.185h-6.27Zm-1.275.03v5.169L7.643,17.335A6.729,6.729,0,0,1,11.231,15.754ZM5.28,22.462a6.725,6.725,0,0,1,1.479-4.208L11.01,22.5,6.8,26.721A6.724,6.724,0,0,1,5.28,22.462Zm6.763,6.763A6.729,6.729,0,0,1,7.69,27.63l4.221-4.221,4.34,4.336a6.737,6.737,0,0,1-4.208,1.479Zm12.722,5.011a.633.633,0,0,0-.145,0h-.068L13.5,23.184H35.833Z" transform="translate(36.991 281.868)" fill="#fff"/></g></svg>