<svg xmlns="http://www.w3.org/2000/svg" width="40" height="39.646" viewBox="0 0 40 39.646"><g transform="translate(-29 -569)"><rect width="40" height="39.646" rx="19.823" transform="translate(29 569)" fill="#bc7d07" opacity="0.1"/><g transform="translate(36 574.104)"><path d="M19.944,15.353a.34.34,0,0,0-.242.1.347.347,0,0,0-.1.244v5.76a1.556,1.556,0,0,1-.443,1.1,1.527,1.527,0,0,1-1.081.46H6.8a2.257,2.257,0,0,0,.618-1.552h0V5.94H19.6V8.479a.347.347,0,0,0,.1.244.339.339,0,0,0,.483,0,.346.346,0,0,0,.1-.244V5.595a.347.347,0,0,0-.1-.244.34.34,0,0,0-.242-.1H7.069a.34.34,0,0,0-.242.1.347.347,0,0,0-.1.244V21.117H3.342a.34.34,0,0,0-.242.1.347.347,0,0,0-.1.244,2.25,2.25,0,0,0,.643,1.584,2.207,2.207,0,0,0,1.564.662H18.082a2.207,2.207,0,0,0,1.56-.662,2.249,2.249,0,0,0,.643-1.58h0V15.7a.346.346,0,0,0-.1-.244A.34.34,0,0,0,19.944,15.353ZM3.724,21.8H6.69a1.534,1.534,0,0,1-.53.869,1.506,1.506,0,0,1-1.906,0,1.534,1.534,0,0,1-.53-.869Z" fill="#bc7d07"/><path d="M40.7,14.865a.4.4,0,0,0-.518,0l-.224.2a1.09,1.09,0,0,0-.4-.059,1.1,1.1,0,0,0-.7.277l-.6.551-4.039,3.628a1.111,1.111,0,0,0-.734.267l-1.806,1.619a.9.9,0,0,0-.308.66l-.808.726a.345.345,0,0,0-.037.026.029.029,0,0,0-.026.023l-1.355,1.979a.3.3,0,0,0-.055.213.317.317,0,0,0,.105.2.385.385,0,0,0,.219.095.4.4,0,0,0,.237-.049L31.851,24s0-.016.026-.023a.336.336,0,0,0,.04-.023l.819-.735a1.112,1.112,0,0,0,.734-.277l1.825-1.606a.9.9,0,0,0,.308-.66l3.73-3.367a.523.523,0,0,1,.08.362.551.551,0,0,1-.183.33L37.395,19.65a.309.309,0,0,0,0,.47.4.4,0,0,0,.523,0l1.836-1.649a1.178,1.178,0,0,0,.416-.8,1.145,1.145,0,0,0-.295-.846l.367-.33a.884.884,0,0,0,.308-.623.78.78,0,0,0-.066-.363l.224-.2a.305.305,0,0,0-.011-.442Zm-1.1.8a.244.244,0,0,1,.089.011.227.227,0,0,1,.077.042.189.189,0,0,1,.048.07.173.173,0,0,1,.011.082.259.259,0,0,1-.092.181l-.345.31-.334-.3.345-.31a.334.334,0,0,1,.191-.086Zm-4.3,4.33-.308-.277,3.543-3.183.334.3-3.569,3.173Zm-3.616,2.671.308.277-.338.3-.334-.3Zm-1.1,1.286.312-.455.195.175Zm4.2-3.084-1.8,1.619a.323.323,0,0,1-.1.063.353.353,0,0,1-.247,0,.323.323,0,0,1-.1-.063l-.308-.277a.27.27,0,0,1,0-.409l1.806-1.619a.323.323,0,0,1,.1-.063.353.353,0,0,1,.247,0,.324.324,0,0,1,.1.063l.308.277a.27.27,0,0,1,0,.409Z" transform="translate(-17.796 -6.024)" fill="#bc7d07"/><path d="M18.472,47.928a.367.367,0,0,0,.477-.2c.187-.455.33-.775.441-.995.033.547.07,1.017.481,1.1.341.062.5-.253.6-.437s.169-.319.264-.345.173.059.334.173a1.726,1.726,0,0,0,.951.389,1.8,1.8,0,0,0,1.347-.665.367.367,0,1,0-.532-.488,1.1,1.1,0,0,1-.789.437,1.05,1.05,0,0,1-.551-.257,1.1,1.1,0,0,0-.944-.283.9.9,0,0,0-.437.268c-.033-.514-.077-.951-.448-1.043-.444-.11-.753.316-1.4,1.9a.367.367,0,0,0,.2.448Z" transform="translate(-10.103 -26.703)" fill="#bc7d07"/><path d="M40.248,12.22H36.617a.367.367,0,0,0,0,.734h3.631a.367.367,0,0,0,0-.734Z" transform="translate(-21.972 -4.411)" fill="#bc7d07"/><path d="M40.615,19.2a.367.367,0,0,0-.367-.367H36.617a.367.367,0,0,0,0,.734h3.631a.367.367,0,0,0,.367-.367Z" transform="translate(-21.972 -8.908)" fill="#bc7d07"/><path d="M27.534,25.8a.367.367,0,0,0-.367-.367h-6.8a.367.367,0,0,0,0,.734h6.8a.367.367,0,0,0,.367-.367Z" transform="translate(-11.343 -13.237)" fill="#bc7d07"/><path d="M25.012,32.367A.367.367,0,0,0,24.644,32H20.367a.367.367,0,0,0,0,.734h4.277a.367.367,0,0,0,.367-.367Z" transform="translate(-11.252 -17.546)" fill="#bc7d07"/><path d="M23.671,39a.367.367,0,0,0-.367-.367H20.367a.367.367,0,0,0,0,.734H23.3A.367.367,0,0,0,23.671,39Z" transform="translate(-11.215 -21.895)" fill="#bc7d07"/><path d="M20.263,9.058a.367.367,0,0,0-.367.367v.98l-.176.176-.712.712a.367.367,0,0,0,.518.518l.084-.084v1.729a.367.367,0,0,0,.367.367h3.7a.367.367,0,0,0,.367-.367V11.727l.084.084a.367.367,0,0,0,.518-.518l-.712-.712L22.1,8.746a.367.367,0,0,0-.518,0l-.94.94V9.44a.367.367,0,0,0-.378-.382Zm1.564.448L23.3,10.975v2.1H20.344V10.993l.176-.176Z" transform="translate(-10.561 -2.145)" fill="#bc7d07"/></g></g></svg>