<svg xmlns="http://www.w3.org/2000/svg" width="70" height="70" viewBox="0 0 70 70"><g transform="translate(-283 -275)"><path d="M35,0A35,35,0,1,1,0,35,35,35,0,0,1,35,0Z" transform="translate(283 275)" fill="#030819"/><g transform="translate(307.5 288.305)"><circle cx="4.716" cy="4.716" r="4.716" transform="translate(4.748 1.979)" fill="none" stroke="#fff" stroke-width="1"/><path d="M2.637,20.515c.375-1.188.758-2.3,1.012-2.864a1.4,1.4,0,0,1-.476-.444.791.791,0,0,1-.113-.427A2.647,2.647,0,0,1,3.947,15.1c.048-.049.1-.093.15-.138v2.16a2.955,2.955,0,0,1,1.229-.212c.891,0,2.454.246,2.675,1.165a1.906,1.906,0,0,1,1.753,1.339.636.636,0,0,1,.049.842A1.9,1.9,0,0,1,8.054,21.8a78.667,78.667,0,0,1-.433,8.074c-.245.739-2.108.822-2.9.822H4.71c-.148,0-.361,0-.613-.018V43.813a2.365,2.365,0,0,0,4.729,0V26.93h.886V43.813a2.365,2.365,0,0,0,4.729,0V14.845l.027.01a12.272,12.272,0,0,0,3.969.789A6.09,6.09,0,0,0,20.2,15.4a4.258,4.258,0,0,0,2.365-1.727,5.876,5.876,0,0,0,.856-3.3q0-.336-.024-.695a1.467,1.467,0,0,0-.263-.744H26.8a.561.561,0,1,0,0-1.122h-.021a.315.315,0,0,0-.173-.139,1.151,1.151,0,0,1-.818-.591,4.415,4.415,0,0,1-.012-2.5c.113-.339.368-.5.972-1.367.554-.8.006-2.692-.11-3.064A.156.156,0,0,0,26.478,0h-2.07a.156.156,0,0,0-.158.15c-.116.372-.664,2.265-.11,3.064.6.87.858,1.028.972,1.367a4.415,4.415,0,0,1-.012,2.5,1.151,1.151,0,0,1-.818.591.313.313,0,0,0-.173.139H22.967a.315.315,0,0,0-.173-.139,1.151,1.151,0,0,1-.818-.591,4.414,4.414,0,0,1-.012-2.5c.113-.339.368-.5.972-1.367.554-.8.006-2.692-.11-3.064A.156.156,0,0,0,22.669,0H20.6a.156.156,0,0,0-.158.15c-.116.372-.664,2.265-.11,3.064.6.87.858,1.028.972,1.367a4.417,4.417,0,0,1-.012,2.5,1.151,1.151,0,0,1-.818.591.313.313,0,0,0-.174.139H19.158a.314.314,0,0,0-.173-.139,1.151,1.151,0,0,1-.818-.591,4.412,4.412,0,0,1-.012-2.5c.114-.339.368-.5.972-1.367.554-.8.006-2.692-.11-3.064A.156.156,0,0,0,18.86,0H16.79a.156.156,0,0,0-.158.15c-.116.372-.664,2.265-.11,3.064.6.87.858,1.028.972,1.367a4.418,4.418,0,0,1-.012,2.5,1.152,1.152,0,0,1-.818.591.312.312,0,0,0-.174.139H16.47a.561.561,0,1,0,0,1.122H20.61a1.464,1.464,0,0,0-.263.938q.017.266.017.5a3.862,3.862,0,0,1-.192,1.324,1.22,1.22,0,0,1-.578.723,2.45,2.45,0,0,1-1.155.229,9.329,9.329,0,0,1-2.921-.608c-.443-.158-.823-.318-1.087-.435-.132-.059-.234-.107-.3-.14l-.074-.036-.015-.008a1.552,1.552,0,0,0-.874-.162,1.506,1.506,0,0,0-.2-.015H12.05L10.2,14.257l-.58-1.7.732-1.306H8.184l.733,1.306-.58,1.7L6.488,11.248H5.575a1.52,1.52,0,0,0-.216.017,5.7,5.7,0,0,0-3.577,1.72A5.5,5.5,0,0,0,0,16.78a3.742,3.742,0,0,0,.536,1.946A4.726,4.726,0,0,0,2.637,20.515Zm6.632,3.354a.655.655,0,1,1,.669-.655A.662.662,0,0,1,9.269,23.868Zm0-8.011a.655.655,0,1,1-.669.655A.662.662,0,0,1,9.269,15.858Z" fill="none" stroke="#fff" stroke-width="1"/><path d="M42.079,101.985a1.676,1.676,0,0,0-.018-3.339C42.1,99.3,42.1,100.529,42.079,101.985Z" transform="translate(-34.059 -80.351)" fill="none" stroke="#fff" stroke-width="1"/><path d="M12.676,106.393a109.3,109.3,0,0,0,.409-13c-.243-1.067-3.383-1.228-3.841-.681s-3.813,11.3-3.195,13.019S12.41,107.216,12.676,106.393Z" transform="translate(-4.722 -75.948)" fill="none" stroke="#fff" stroke-width="1"/></g></g></svg>