<svg xmlns="http://www.w3.org/2000/svg" width="53" height="53" viewBox="0 0 53 53"><g transform="translate(-28 -804)"><g transform="translate(28 804)" fill="#fff" stroke="#402b8c" stroke-width="2"><circle cx="26.5" cy="26.5" r="26.5" stroke="none"/><circle cx="26.5" cy="26.5" r="25.5" fill="none"/></g><g transform="translate(38.635 813.13)"><path d="M22.168,23.266V21.486a6.657,6.657,0,0,0,3.407-4.921c2.028,0,3.093-2.861,1.876-4.5C28.576,5.545,24.428,2.6,18.907,2.5c-.946.135-.806.752-.952,1.952a9.144,9.144,0,0,0-4.369.963C9.952,7.351,8.978,11.931,8.941,12.12a.8.8,0,0,0,.146.638c-.606,1.622.416,3.812,2.239,3.785a6.678,6.678,0,0,0,3.4,4.921v1.8C7.6,24.4,2.5,28.657,2.5,33.594a.811.811,0,0,0,.811.811H33.594a.811.811,0,0,0,.811-.811C34.405,28.657,29.3,24.4,22.168,23.266Zm3.461-8.333V12.726h.287C26.6,13.229,26.413,14.813,25.629,14.932ZM19.61,4.155c4.25.341,6.835,2.4,6.338,6.971C21.7,10.785,19.107,8.719,19.61,4.155Zm-5.251,2.7a7.609,7.609,0,0,1,3.618-.773,7.344,7.344,0,0,0,1.2,3.553c-1.931,2.7-5.77,2.736-8.425,2.087a8.4,8.4,0,0,1,3.612-4.878Zm-3.52,7.809a1.5,1.5,0,0,1-.222-1.319l.66.124v1.46A.687.687,0,0,1,10.839,14.667Zm2.06,1.082V13.656a8.406,8.406,0,0,0,7.4-2.839,9.15,9.15,0,0,0,3.7,1.655v3.245a.205.205,0,0,0,0,.081,5.035,5.035,0,0,1-2.958,4.44.833.833,0,0,0-.5.752v2.98a.833.833,0,0,0,.449.725,5.948,5.948,0,0,0,1.017.2,3.649,3.649,0,0,1-7.117,0,4.294,4.294,0,0,0,1.082-.238A.8.8,0,0,0,16.354,24V20.989a.827.827,0,0,0-.346-.66A5.143,5.143,0,0,1,12.9,15.749Zm.4,9.453a5.277,5.277,0,0,0,10.307,0c5.04,1.222,8.62,4.164,9.117,7.571H4.182c.5-3.4,4.077-6.343,9.117-7.565Z" transform="translate(-2.5 -2.5)" fill="#402b8c"/></g></g></svg>