<svg xmlns="http://www.w3.org/2000/svg" width="22" height="22" viewBox="0 0 22 22"><path d="M16.062,16.819V15.592A4.59,4.59,0,0,0,18.411,12.2c1.4,0,2.133-1.973,1.294-3.1.776-4.5-2.084-6.529-5.892-6.6-.653.093-.556.518-.656,1.346a6.305,6.305,0,0,0-3.013.664C7.638,5.845,6.967,9,6.941,9.134a.552.552,0,0,0,.1.44,1.9,1.9,0,0,0,1.544,2.61,4.605,4.605,0,0,0,2.345,3.393v1.242C6.02,17.6,2.5,20.536,2.5,23.941a.559.559,0,0,0,.559.559H23.941a.559.559,0,0,0,.559-.559C24.5,20.536,20.98,17.6,16.062,16.819Zm2.386-5.746V9.551h.2C19.119,9.9,18.989,10.991,18.448,11.073ZM14.3,3.641c2.931.235,4.713,1.656,4.37,4.806C15.737,8.213,13.951,6.788,14.3,3.641ZM10.677,5.505a5.246,5.246,0,0,1,2.495-.533A5.064,5.064,0,0,0,14,7.422c-1.331,1.864-3.979,1.887-5.809,1.439A5.8,5.8,0,0,1,10.677,5.5ZM8.25,10.89A1.037,1.037,0,0,1,8.1,9.98l.455.086v1.007A.474.474,0,0,1,8.25,10.89Zm1.421.746V10.193a5.8,5.8,0,0,0,5.1-1.958,6.309,6.309,0,0,0,2.554,1.141v2.237a.142.142,0,0,0,0,.056,3.472,3.472,0,0,1-2.04,3.061.574.574,0,0,0-.347.518V17.3a.574.574,0,0,0,.309.5,4.1,4.1,0,0,0,.7.138,2.516,2.516,0,0,1-4.907,0,2.961,2.961,0,0,0,.746-.164.548.548,0,0,0,.261-.451V15.249a.571.571,0,0,0-.239-.455A3.546,3.546,0,0,1,9.671,11.636Zm.276,6.518a3.639,3.639,0,0,0,7.107,0C20.529,19,23,21.025,23.34,23.374H3.66C4,21.028,6.471,19,9.946,18.157Z" transform="translate(-2.5 -2.5)" fill="#402b8c"/></svg>