<svg xmlns="http://www.w3.org/2000/svg" width="16.598" height="27" viewBox="0 0 16.598 27"><g transform="translate(6.234)"><path d="M-1.007,0H-3.3a.611.611,0,0,0-.611.611V9.539a4.085,4.085,0,0,0-2.326,3.682V25a2,2,0,0,0,2,2H-.069a2,2,0,0,0,2-2V13.221A4.082,4.082,0,0,0-.4,9.539V.611A.611.611,0,0,0-1.007,0Zm-.611,3.662h-1.07V3.051h1.07Zm0-2.441V1.83h-1.07V1.221Zm-1.07,3.662h1.07v4.3a3.981,3.981,0,0,0-1.07,0ZM.708,22.56H-2.048V15.908H.708Zm0-9.34v1.466H-2.659a.611.611,0,0,0-.611.611v7.874a.611.611,0,0,0,.611.611H.708V25a.778.778,0,0,1-.777.777H-4.237A.778.778,0,0,1-5.013,25V13.221a2.86,2.86,0,0,1,2.86-2.846A2.86,2.86,0,0,1,.708,13.221Zm0,0" transform="translate(0)" fill="currentColor"/><path d="M184.361,182.381a.611.611,0,1,0,0,1.221h5.02a.611.611,0,0,0,0-1.221h-1.832v-5.9a3.042,3.042,0,0,0,2.462-2.981v-7.278a.61.61,0,0,0-.611-.611h-4.86a.611.611,0,0,0-.611.611V173.5a3.042,3.042,0,0,0,2.4,2.968v5.912Zm4.429-15.547v1.91h-3.638v-1.91Zm-3.638,6.667v-3.536h3.638V173.5a1.819,1.819,0,0,1-3.638,0Zm0,0" transform="translate(-179.648 -156.603)" fill="currentColor" /></g></svg>