<svg xmlns="http://www.w3.org/2000/svg" width="70" height="70" viewBox="0 0 70 70"><g transform="translate(-110 -275)"><path d="M35,0A35,35,0,1,1,0,35,35,35,0,0,1,35,0Z" transform="translate(110 275)" fill="#00c1ff"/><g transform="translate(126 295)"><path d="M50.649,15.013A17.734,17.734,0,0,1,48.57,6.7V.536A.536.536,0,0,0,48.035,0H44.821a.536.536,0,0,0-.536.536V6.7a17.734,17.734,0,0,1-2.079,8.318,18.811,18.811,0,0,0-2.176,7.873.51.51,0,0,0-.029.146V33.745a.536.536,0,0,0,.536.536H52.32a.536.536,0,0,0,.536-.536V23.836A18.812,18.812,0,0,0,50.649,15.013ZM45.356,1.071H47.5V2.143H45.356ZM41.071,25.71h3.749V24.639H41.071v-.8c0-.089.007-.178.009-.268H47.5v7.5H41.071Zm10.713,7.5H41.071V32.138h6.963a.536.536,0,0,0,.536-.536v-8.57a.536.536,0,0,0-.536-.536H41.129a17.737,17.737,0,0,1,2.022-6.979A18.812,18.812,0,0,0,45.356,6.7V3.214H47.5V6.7A18.812,18.812,0,0,0,49.7,15.518a17.734,17.734,0,0,1,2.079,8.318Z" transform="translate(-18.575)" fill="#fff"/><path d="M27.892,20H22.536a.536.536,0,0,0-.536.536V30.713a3.217,3.217,0,0,0,2.678,3.166V42.5H22.536v1.071h5.356V42.5H25.749V33.878a3.216,3.216,0,0,0,2.678-3.166V20.536A.536.536,0,0,0,27.892,20Zm-.536,10.713a2.143,2.143,0,1,1-4.285,0V25.842a6.944,6.944,0,0,0,4.147-2l.138-.138Zm0-8.3-.111-.111-.784.784a5.883,5.883,0,0,1-3.39,1.677V21.071h4.285V22.41Z" transform="translate(-10.216 -9.287)" fill="#fff"/><rect width="1" height="2" transform="translate(3)" fill="#fff"/><rect width="1" height="1" transform="translate(3 5)" fill="#fff"/><rect width="1" height="1" transform="translate(5 3)" fill="#fff"/><rect width="2" height="1" transform="translate(0 3)" fill="#fff"/><path d="M13.607,11a1.607,1.607,0,1,0,1.607,1.607A1.609,1.609,0,0,0,13.607,11Zm0,2.143a.536.536,0,1,1,.536-.536A.537.537,0,0,1,13.607,13.143Z" transform="translate(-5.572 -5.108)" fill="#fff"/><path d="M29.678,0a2.678,2.678,0,1,0,2.678,2.678A2.681,2.681,0,0,0,29.678,0Zm0,4.285a1.607,1.607,0,1,1,1.607-1.607A1.609,1.609,0,0,1,29.678,4.285Z" transform="translate(-12.538)" fill="#fff"/><path d="M25.607,15.214A1.607,1.607,0,1,0,24,13.607,1.609,1.609,0,0,0,25.607,15.214Zm0-2.143a.536.536,0,1,1-.536.536A.537.537,0,0,1,25.607,13.071Z" transform="translate(-11.145 -5.572)" fill="#fff"/><path d="M10.892,20H5.536A.536.536,0,0,0,5,20.536V30.713a3.217,3.217,0,0,0,3.214,3.214V42.5H6.071v1.071h5.356V42.5H9.285V33.739a3.216,3.216,0,0,0,2.143-3.026V20.536A.536.536,0,0,0,10.892,20Zm-.536,10.713a2.143,2.143,0,1,1-4.285,0V28.556c.06,0,.113-.012.171-.017.109-.008.214-.019.318-.031.147-.017.29-.037.427-.062.1-.017.193-.035.287-.055.134-.029.264-.064.39-.1.085-.025.17-.048.252-.076.129-.043.251-.093.372-.144.07-.029.142-.056.209-.088.138-.065.269-.137.4-.211.043-.025.089-.046.131-.072.169-.1.332-.213.49-.331.043-.032.084-.068.126-.1.115-.089.228-.181.339-.277.058-.051.115-.1.172-.158s.135-.121.2-.185v4.064Zm0-5.578-.627.627q-.191.191-.385.364c-.043.039-.088.073-.132.111-.087.074-.175.148-.264.217-.054.041-.11.078-.164.117-.084.059-.167.118-.253.171-.061.037-.124.072-.186.107-.086.048-.173.1-.263.139-.067.032-.137.062-.207.092-.092.039-.186.076-.284.109q-.112.039-.228.072c-.1.029-.207.056-.314.08-.082.018-.165.036-.251.051-.114.02-.235.035-.356.05-.09.011-.178.022-.273.029l-.1,0V21.071h4.285Z" transform="translate(-2.322 -9.287)" fill="#fff"/><rect width="1" height="1" transform="translate(25 30)" fill="#fff"/><rect width="2" height="1" transform="translate(27 30)" fill="#fff"/><rect width="1" height="2" transform="translate(25 27)" fill="#fff"/><rect width="2" height="2" transform="translate(27 27)" fill="#fff"/><rect width="2" height="1" transform="translate(13 21)" fill="#fff"/><rect width="1" height="1" transform="translate(16 21)" fill="#fff"/><rect width="2" transform="translate(13 19)" fill="#fff"/><rect width="1" transform="translate(16 19)" fill="#fff"/></g></g></svg>