<svg xmlns="http://www.w3.org/2000/svg" width="12.48" height="14.946" viewBox="0 0 12.48 14.946">
  <path id="Path_18964" data-name="Path 18964" d="M18.546,28.565l.278-1.765-.619-.014H15.249L17.3,13.762a.172.172,0,0,1,.057-.1.168.168,0,0,1,.109-.04h4.984c1.654,0,2.8.344,3.392,1.024a2.334,2.334,0,0,1,.544,1.019,3.677,3.677,0,0,1,0,1.4l-.006.041v.359l.279.158a1.96,1.96,0,0,1,.566.431,2.009,2.009,0,0,1,.459,1.03,4.356,4.356,0,0,1-.065,1.494,5.261,5.261,0,0,1-.612,1.691,3.478,3.478,0,0,1-.97,1.063,3.934,3.934,0,0,1-1.306.589,6.513,6.513,0,0,1-1.632.189h-.388a1.167,1.167,0,0,0-1.153.985l-.029.159-.491,3.111-.022.114a.1.1,0,0,1-.031.066.082.082,0,0,1-.051.019Z" transform="translate(-15.249 -13.619)" fill="#253b80"/>
</svg>
