<svg xmlns="http://www.w3.org/2000/svg" width="31.879" height="31.879" viewBox="0 0 31.879 31.879"><g transform="translate(-43 -205.121)"><path d="M0,15.939A15.939,15.939,0,1,1,15.939,31.879,15.939,15.939,0,0,1,0,15.939Z" transform="translate(43 205.121)" fill="#222d65" opacity="0.066"/><path d="M18.546,28.565l.278-1.765-.619-.014H15.249L17.3,13.762a.172.172,0,0,1,.057-.1.168.168,0,0,1,.109-.04h4.984c1.654,0,2.8.344,3.392,1.024a2.334,2.334,0,0,1,.544,1.019,3.677,3.677,0,0,1,0,1.4l-.006.041v.359l.279.158a1.96,1.96,0,0,1,.566.431,2.009,2.009,0,0,1,.459,1.03,4.356,4.356,0,0,1-.065,1.494,5.261,5.261,0,0,1-.612,1.691,3.478,3.478,0,0,1-.97,1.063,3.934,3.934,0,0,1-1.306.589,6.513,6.513,0,0,1-1.632.189h-.388a1.167,1.167,0,0,0-1.153.985l-.029.159-.491,3.111-.022.114a.1.1,0,0,1-.031.066.082.082,0,0,1-.051.019Z" transform="translate(37.878 200.547)" fill="#253b80"/><path d="M28.308,18.934q-.022.143-.051.292c-.657,3.374-2.906,4.54-5.777,4.54H21.018a.71.71,0,0,0-.7.6l-.749,4.748-.212,1.346a.374.374,0,0,0,.369.432h2.593a.624.624,0,0,0,.616-.526l.026-.132.488-3.1.031-.17a.624.624,0,0,1,.616-.527h.388c2.513,0,4.479-1.02,5.054-3.972a3.382,3.382,0,0,0-.52-2.987A2.48,2.48,0,0,0,28.308,18.934Z" transform="translate(36.501 198.762)" fill="#179bd7"/><path d="M28.109,18.4q-.151-.044-.31-.08t-.329-.062a8.121,8.121,0,0,0-1.289-.094H22.275a.623.623,0,0,0-.616.527l-.831,5.263-.024.154a.71.71,0,0,1,.7-.6h1.462c2.872,0,5.12-1.166,5.777-4.54.02-.1.036-.2.051-.292a3.5,3.5,0,0,0-.54-.228Z" transform="translate(36.013 199.02)" fill="#222d65"/><path d="M19.854,16.425a.622.622,0,0,1,.269-.061H24.03a8.12,8.12,0,0,1,1.289.094q.169.027.329.062t.31.08l.148.046a3.556,3.556,0,0,1,.54.228,3.187,3.187,0,0,0-.676-2.865c-.743-.846-2.085-1.209-3.8-1.209H17.185a.712.712,0,0,0-.7.6L14.405,26.56a.428.428,0,0,0,.422.5H17.9l.773-4.9.831-5.263A.621.621,0,0,1,19.854,16.425Z" transform="translate(38.164 200.822)" fill="#253b80"/></g></svg>