<svg xmlns="http://www.w3.org/2000/svg" width="22" height="26.526" viewBox="0 0 22 26.526"><path d="M64.458,59.526H85.542A.458.458,0,0,0,86,59.068V57.234a.458.458,0,0,0-.458-.458h-.917v-.917a.458.458,0,0,0-.458-.458H82.792a.458.458,0,0,0-.458.458v.917H78.869l2.214-2.133.027-.028a3.093,3.093,0,0,0,.765-2.037V48.454a3.665,3.665,0,0,0-3.011-3.607l-.458-.083-.482-.1v-.669A2.372,2.372,0,0,0,80.1,41.306l-.564-4.137A4.825,4.825,0,0,0,74.741,33h-.1a4.693,4.693,0,0,0-4.674,4.268l-.228,2.5-3.716,5.378A2.152,2.152,0,0,0,67.8,48.526h2.62v.357a1.467,1.467,0,0,0,.237.8l-.088.147a2.945,2.945,0,0,0,.443,3.6l.36.36.3,1.5-.262,1.484h-.99v-.917a.458.458,0,0,0-.458-.458H68.583a.458.458,0,0,0-.458.458v.917h-.917v-.917a.458.458,0,0,0-.458-.458H65.375a.458.458,0,0,0-.458.458v.917h-.458a.458.458,0,0,0-.458.458v1.833a.458.458,0,0,0,.458.458ZM83.25,56.318h.458v.458H83.25ZM78.225,45.661l.012,0,.463.084a2.749,2.749,0,0,1,2.258,2.706v4.124A2.177,2.177,0,0,1,80.432,54l-2.491,2.4-.757.378h-3.1V56.6l.663-.332a.458.458,0,0,0,.2-.2l.237-.473a.342.342,0,0,1,.307-.19h1.338a.458.458,0,0,0,.324-.134l1.833-1.833a2.945,2.945,0,0,0,.443-3.6l-.088-.147a1.467,1.467,0,0,0,.237-.8V47.711a1.478,1.478,0,0,0-1.476-1.476h-.185V45.6Zm-2.562,1.08a.458.458,0,0,0-.615.2,4.828,4.828,0,0,0-.492,1.779l-.931-.482v-1.55a.458.458,0,0,0-.458-.458h-.232l-.006-.682.715-.088a.458.458,0,0,0,.4-.388l.158-1.066a3.17,3.17,0,0,0,1.685-.022l.153.977a.458.458,0,0,0,.368.38l.6.114v.775h-.172a.458.458,0,0,0-.458.458V48.3l-.9.435a3.906,3.906,0,0,1,.393-1.382.458.458,0,0,0-.2-.615Zm-4.33,2.142V47.711a.56.56,0,0,1,.56-.56h.815v2.292h-.815a.56.56,0,0,1-.56-.56Zm-.158-4.5a5,5,0,0,0,.429.378l-.724.042Zm6.805-5.026a.688.688,0,1,1,0,1.375h-.023l.017-1.375ZM77.009,43.6v.93l-.115-.022-.142-.911c.059-.039.118-.079.175-.121.028-.021.055-.043.082-.065l0,.128a.465.465,0,0,0,0,.06Zm.016-1.619a2.29,2.29,0,0,1-3.858.3V39.769a.573.573,0,1,0,.077-1.076A3.316,3.316,0,0,1,74.418,36.8l.665-.532A3.018,3.018,0,0,1,76.6,37.683l.462,1.349Zm-3.858,1.561q.078.054.16.1l-.141.955-.019,0Zm4.125,5.08a.452.452,0,0,0,0-.058v-1.41h.458a.46.46,0,0,0,.009.09l.439,2.194a.551.551,0,0,1-.091.008h-.815Zm1.556-6.034a1.457,1.457,0,0,1-.92.488l.018-1.421h.035a1.6,1.6,0,0,0,1.173-.512l.04.291a1.456,1.456,0,0,1-.346,1.154ZM72.1,34.9a3.768,3.768,0,0,1,2.546-.988h.1a3.936,3.936,0,0,1,2.585.963,3.9,3.9,0,0,1,1.3,2.413l.189,1.386a1.6,1.6,0,0,0-.838-.237h-.152l-.372-1.086a.455.455,0,0,0-.024-.057,3.932,3.932,0,0,0-2.288-1.985.459.459,0,0,0-.431.077l-.868.695a4.23,4.23,0,0,0-1.6,3.319v4.7A4.131,4.131,0,0,1,70.6,40.434l.28-3.083A3.767,3.767,0,0,1,72.1,34.9ZM66.692,46.926a1.236,1.236,0,0,1,.089-1.256l2.93-4.24a5.062,5.062,0,0,0,.855,2.229l-.982,1.4a.458.458,0,0,0,.375.722h.026l2.028-.117,0,.576h-.125a1.478,1.478,0,0,0-1.472,1.375H67.8a1.229,1.229,0,0,1-1.1-.683Zm4.66,3.376.023-.038a1.467,1.467,0,0,0,.519.094h1.274a.458.458,0,0,0,.458-.458v-.626l1.17.606a.458.458,0,0,0,.41.006l1.17-.566v.58a.458.458,0,0,0,.458.458h1.274a1.467,1.467,0,0,0,.519-.094l.023.038a2.029,2.029,0,0,1-.306,2.483l-.324.324H71.981l-.324-.324a2.029,2.029,0,0,1-.306-2.483ZM72.585,55.2l-.234-1.171H77.1l-.458.458H75.5a1.254,1.254,0,0,0-1.127.7l-.168.337-.78.39a.458.458,0,0,0-.253.41v.458h-.829l.249-1.41a.459.459,0,0,0,0-.17Zm-3.543,1.121H69.5v.458h-.458Zm-3.208,0h.458v.458h-.458Zm-.917,1.375H85.083v.917H64.917Z" transform="translate(-64 -33)" fill="#402b8c"/></svg>