<svg xmlns="http://www.w3.org/2000/svg" width="24.4" height="24.4" viewBox="0 0 24.4 24.4"><g transform="translate(-1.3 -1.3)"><rect width="23" height="23" rx="11.5" transform="translate(2 2)" fill="none" stroke="#402b8c" stroke-linecap="round" stroke-linejoin="round" stroke-width="1.4"/><path d="M36.565,33.953H31.523A2.522,2.522,0,0,1,29,31.431h0a2.523,2.523,0,0,1,2.523-2.522h5.042a2.522,2.522,0,0,1,2.523,2.522h0" transform="translate(-20.543 -20.474)" fill="none" stroke="#402b8c" stroke-linecap="round" stroke-linejoin="round" stroke-width="1.4" fill-rule="evenodd"/><path d="M31.523,50h5.042a2.522,2.522,0,0,1,2.523,2.522h0a2.523,2.523,0,0,1-2.523,2.522H31.523A2.522,2.522,0,0,1,29,52.522h0" transform="translate(-20.543 -36.521)" fill="none" stroke="#402b8c" stroke-linecap="round" stroke-linejoin="round" stroke-width="1.4" fill-rule="evenodd"/><path d="M50.355,21V34.871" transform="translate(-36.79 -14.456)" fill="none" stroke="#402b8c" stroke-linecap="round" stroke-linejoin="round" stroke-width="1.4" fill-rule="evenodd"/></g></svg>