<svg xmlns="http://www.w3.org/2000/svg" width="40" height="39.646" viewBox="0 0 40 39.646"><g transform="translate(-29 -435.982)"><rect width="40" height="39.646" rx="19.823" transform="translate(29 435.982)" fill="rgba(108,77,218,0.6)" opacity="0.262"/><g transform="translate(38 446)"><path d="M1,17.223H5.269v4.019l4.019-4.019h12.2V1H1Zm.854-15.37H20.639V16.37H8.935L6.123,19.181V16.37H1.854Z" fill="#6c4dda"/><path d="M12.415,17.708a1.708,1.708,0,1,0-1.708,1.708A1.709,1.709,0,0,0,12.415,17.708Zm-2.562,0a.854.854,0,1,1,.854.854A.855.855,0,0,1,9.854,17.708Z" transform="translate(-4.585 -8.596)" fill="#6c4dda"/><path d="M22.708,19.415A1.708,1.708,0,1,0,21,17.708,1.709,1.709,0,0,0,22.708,19.415Zm0-2.562a.854.854,0,1,1-.854.854A.855.855,0,0,1,22.708,16.854Z" transform="translate(-11.461 -8.596)" fill="#6c4dda"/><path d="M34.708,19.415A1.708,1.708,0,1,0,33,17.708,1.709,1.709,0,0,0,34.708,19.415Zm0-2.562a.854.854,0,1,1-.854.854A.855.855,0,0,1,34.708,16.854Z" transform="translate(-18.338 -8.596)" fill="#6c4dda"/></g></g></svg>