<svg xmlns="http://www.w3.org/2000/svg" width="30" height="30" viewBox="0 0 30 30"><g transform="translate(-27 -736)"><circle cx="15" cy="15" r="15" transform="translate(27 736)" fill="#00c1ff" opacity="0.1"/><g transform="translate(35 744)"><path d="M10.014,9.264,8.792,10.792A12.89,12.89,0,0,1,4.208,6.208L5.736,4.986a1.038,1.038,0,0,0,.3-1.232L4.643.617A1.038,1.038,0,0,0,3.433.034L.781.721A1.046,1.046,0,0,0,.01,1.875,15.407,15.407,0,0,0,13.125,14.99a1.044,1.044,0,0,0,1.153-.771l.688-2.651a1.038,1.038,0,0,0-.583-1.21L11.246,8.965A1.04,1.04,0,0,0,10.014,9.264Z" transform="translate(0 0)" fill="none" stroke="#00c1ff" stroke-linecap="round" stroke-linejoin="round" stroke-miterlimit="10" stroke-width="1"/></g></g></svg>