<svg xmlns="http://www.w3.org/2000/svg" xmlns:xlink="http://www.w3.org/1999/xlink" width="55" height="55" viewBox="0 0 55 55"><defs><linearGradient id="a" x1="0.5" x2="0.5" y2="1" gradientUnits="objectBoundingBox"><stop offset="0.031" stop-color="#402b8c"/><stop offset="0.124" stop-color="#462b8e"/><stop offset="0.256" stop-color="#592d94"/><stop offset="0.411" stop-color="#77309e"/><stop offset="0.584" stop-color="#a235ac"/><stop offset="0.77" stop-color="#d83abe"/><stop offset="0.89" stop-color="#ff3fcb"/></linearGradient></defs><g transform="translate(-53 -433)"><circle cx="27.5" cy="27.5" r="27.5" transform="translate(53 433)" fill="url(#a)"/><g transform="translate(63 444)"><path d="M14,20.393a.954.954,0,0,0-.707.324A1.17,1.17,0,0,0,13,21.5v4.429H4V8.214h9v4.429a1.17,1.17,0,0,0,.293.783.933.933,0,0,0,1.414,0A1.17,1.17,0,0,0,15,12.643V7.107a1.17,1.17,0,0,0-.293-.783A.954.954,0,0,0,14,6H3a.954.954,0,0,0-.707.324A1.17,1.17,0,0,0,2,7.107V27.036a1.17,1.17,0,0,0,.293.783A.954.954,0,0,0,3,28.143H14a.954.954,0,0,0,.707-.324A1.17,1.17,0,0,0,15,27.036V21.5a1.17,1.17,0,0,0-.293-.783A.954.954,0,0,0,14,20.393Z" transform="translate(0 0)" fill="#fff"/><path d="M29,6H18a.954.954,0,0,0-.707.324A1.17,1.17,0,0,0,17,7.107v5.536a1.17,1.17,0,0,0,.293.783.933.933,0,0,0,1.414,0A1.17,1.17,0,0,0,19,12.643V8.214h9V25.929H19V21.5a1.17,1.17,0,0,0-.293-.783.933.933,0,0,0-1.414,0A1.17,1.17,0,0,0,17,21.5v5.536a1.17,1.17,0,0,0,.293.783.954.954,0,0,0,.707.324H29a.954.954,0,0,0,.707-.324A1.17,1.17,0,0,0,30,27.036V7.107a1.17,1.17,0,0,0-.293-.783A.954.954,0,0,0,29,6Z" transform="translate(3 0)" fill="#fff"/><path d="M7,16a1,1,0,0,0,1,1H22.59l-.3.29a1,1,0,1,0,1.42,1.42l2-2a1,1,0,0,0,0-1.42l-2-2a1,1,0,1,0-1.42,1.42l.3.29H8a1,1,0,0,0-1,1Z" transform="translate(3 1.072)" fill="#fff"/></g></g></svg>