<svg xmlns="http://www.w3.org/2000/svg" width="13.71" height="9.826" viewBox="0 0 13.71 9.826"><path d="M15.024,22.2a.678.678,0,0,0-.235.044A1.219,1.219,0,0,0,14.11,21.2a.906.906,0,0,0,.229-.6v-.685a.914.914,0,1,0-1.828,0V20.6a.908.908,0,0,0,.314.684,1.239,1.239,0,0,0-.539.943.78.78,0,0,0,0,.086v.114H11.14a.676.676,0,0,0-.228.042,1.434,1.434,0,0,0-.15-.626,1.415,1.415,0,0,0-1.125-.777.9.9,0,0,0,.132-.468v-.685a.914.914,0,1,0-1.828,0V20.6a.9.9,0,0,0,.133.467,1.414,1.414,0,0,0-1.125.777,1.432,1.432,0,0,0-.15.626.676.676,0,0,0-.228-.042H5.428v-.114a.7.7,0,0,0,0-.075,1.252,1.252,0,0,0-.54-.954A.908.908,0,0,0,5.2,20.6v-.685a.914.914,0,1,0-1.828,0V20.6a.906.906,0,0,0,.228.6,1.22,1.22,0,0,0-.679,1.045.678.678,0,0,0-.235-.044A.686.686,0,0,0,2,22.885v2.97a.685.685,0,0,0,.685.686h.686v1.371H2.685a.229.229,0,0,0-.229.229v.228H4.742V28.14a.229.229,0,0,0-.228-.229H3.828V26.541H4.971A.678.678,0,0,0,5.2,26.5v2.1a.229.229,0,0,0,.229.229h1.6a.228.228,0,0,0,.228-.229V28.14a.685.685,0,0,0-.685-.686V25.4a1.144,1.144,0,0,0-1.142-1.143V23.8h.956a.678.678,0,0,0-.042.229.686.686,0,0,0,.686.686h.685V28.6a.228.228,0,0,0,.229.229H9.769A.229.229,0,0,0,10,28.6V24.713h.686a.686.686,0,0,0,.685-.686.678.678,0,0,0-.042-.229h.956v.457A1.144,1.144,0,0,0,11.14,25.4v2.056a.686.686,0,0,0-.686.686V28.6a.229.229,0,0,0,.229.229h1.6a.229.229,0,0,0,.229-.229V26.5a.678.678,0,0,0,.229.042h1.142v1.371H13.2a.229.229,0,0,0-.228.229v.228h2.285V28.14a.228.228,0,0,0-.228-.229h-.686V26.541h.686a.685.685,0,0,0,.686-.686v-2.97A.686.686,0,0,0,15.024,22.2Zm-2.056-2.285a.457.457,0,1,1,.914,0V20.6a.457.457,0,0,1-.914,0Zm-1.828,2.97h.229v.457h-.457v-.228A.229.229,0,0,1,11.14,22.885ZM8.4,19.914a.457.457,0,1,1,.914,0V20.6a.457.457,0,0,1-.914,0ZM7.255,22.481a.968.968,0,0,1,.968-.968H9.487a.963.963,0,0,1,.866.535.973.973,0,0,1,.1.433v.86H10v-.685H9.54v.685H8.17v-.685H7.712v.685H7.255Zm-1.371.4v.457H4.514a.229.229,0,0,1-.229-.228v-.8a.343.343,0,0,1,.686,0v.343a.228.228,0,0,0,.228.229Zm-2.057-2.97a.457.457,0,1,1,.914,0V20.6a.457.457,0,0,1-.914,0Zm1.143,6.17H2.685a.229.229,0,0,1-.229-.229v-2.97a.229.229,0,1,1,.457,0V25.4a.229.229,0,0,0,.228.228H4.971a.229.229,0,0,1,0,.457ZM6.8,28.14v.228H5.656v-.457H6.57A.229.229,0,0,1,6.8,28.14ZM6.113,25.4v2.056H5.656v-1.6a.685.685,0,0,0-.685-.685h-1.6v-.457H5.428A.686.686,0,0,1,6.113,25.4ZM4.971,24.256h-1.6V22.313A.789.789,0,0,1,4.4,21.551a.8.8,0,0,0-.571.763v.8a.686.686,0,0,0,.686.685h.457Zm1.371-1.371H6.57a.229.229,0,0,1,.228.229v.228H6.341Zm3.2,5.484H8.17V24.713H9.54Zm1.371-4.342a.228.228,0,0,1-.228.229H7.027a.229.229,0,0,1,0-.457h3.656A.229.229,0,0,1,10.911,24.027Zm.914-1.142h.686a.229.229,0,0,0,.228-.229v-.343a.343.343,0,0,1,.686,0v.8a.228.228,0,0,1-.229.228H11.826Zm.914.914H13.2a.686.686,0,0,0,.686-.685v-.8a.8.8,0,0,0-.571-.763.8.8,0,0,1,1.028.763v1.942h-1.6ZM11.6,25.4a.686.686,0,0,1,.685-.686h2.056v.457h-1.6a.685.685,0,0,0-.686.685v1.6H11.6Zm.457,2.97H10.911V28.14a.228.228,0,0,1,.228-.229h.914Zm3.2-2.514a.228.228,0,0,1-.228.229H12.74a.229.229,0,0,1,0-.457h1.828A.229.229,0,0,0,14.8,25.4V22.885a.228.228,0,1,1,.457,0Z" transform="translate(-2 -19)" fill="#402b8c"/></svg>