<svg xmlns="http://www.w3.org/2000/svg" xmlns:xlink="http://www.w3.org/1999/xlink" width="55" height="55" viewBox="0 0 55 55"><defs><linearGradient id="a" x1="0.5" x2="0.5" y2="1" gradientUnits="objectBoundingBox"><stop offset="0.031" stop-color="#402b8c"/><stop offset="0.124" stop-color="#462b8e"/><stop offset="0.256" stop-color="#592d94"/><stop offset="0.411" stop-color="#77309e"/><stop offset="0.584" stop-color="#a235ac"/><stop offset="0.77" stop-color="#d83abe"/><stop offset="0.89" stop-color="#ff3fcb"/></linearGradient></defs><g transform="translate(-160 -752)"><path d="M27.5,0A27.5,27.5,0,1,1,0,27.5,27.5,27.5,0,0,1,27.5,0Z" transform="translate(160 752)" fill="url(#a)"/><g transform="translate(170.154 765)"><g transform="translate(0 5.876)"><path d="M417.109,361.005c-6.72-5.626-8.475-14.224-4-19.574s13.252-5.134,19.972.492l-4.788,5.719c-3.692-3.091-7.951-3.231-9.465-1.423s-.626,5.976,3.066,9.067Z" transform="translate(-410.637 -337.557)" fill="#fff"/></g><g transform="translate(12.244)"><path d="M488.634,328.936a17.7,17.7,0,0,1-11.173-4.366l4.789-5.719c3.691,3.091,7.951,3.23,9.465,1.423s.626-5.976-3.066-9.067l4.788-5.719c6.72,5.626,8.475,14.224,4,19.574A11.207,11.207,0,0,1,488.634,328.936Z" transform="translate(-477.461 -305.488)" fill="#fff"/></g></g></g></svg>