<svg xmlns="http://www.w3.org/2000/svg" width="34.691" height="29.324" viewBox="0 0 34.691 29.324"><g transform="translate(-169 -1652.176)"><g transform="translate(-1 1.338)"><g transform="translate(170 1650.838)"><g transform="translate(0 5.876)"><path d="M417.109,361.005c-6.72-5.626-8.475-14.224-4-19.574s13.252-5.134,19.972.492l-4.788,5.719c-3.692-3.091-7.951-3.231-9.465-1.423s-.626,5.976,3.066,9.067Z" transform="translate(-410.637 -337.557)" fill="#fff"/></g><g transform="translate(12.244)"><path d="M488.634,328.936a17.7,17.7,0,0,1-11.173-4.366l4.789-5.719c3.691,3.091,7.951,3.23,9.465,1.423s.626-5.976-3.066-9.067l4.788-5.719c6.72,5.626,8.475,14.224,4,19.574A11.207,11.207,0,0,1,488.634,328.936Z" transform="translate(-477.461 -305.488)" fill="#fff"/></g></g></g></g></svg>