<svg xmlns="http://www.w3.org/2000/svg" width="40" height="39.646" viewBox="0 0 40 39.646"><g transform="translate(-19 -356.619)"><rect width="40" height="39.646" rx="19.823" transform="translate(19 356.619)" fill="#fd7e14" opacity="0.09"/><g transform="translate(19.299 344.092)"><path d="M42.02,32.963c0-1.454-3.734-2.213-7.427-2.213s-7.424.746-7.424,2.213c0,1.4,3.452,2.146,7,2.21v9.458a.488.488,0,0,0,.962,0V35.157C38.636,35.087,42.02,34.334,42.02,32.963Zm-13.889,0c0-.477,2.282-1.408,6.465-1.408s6.462.917,6.462,1.408-2.282,1.408-6.465,1.408S28.132,33.43,28.132,32.963Z" transform="translate(-15.276 -4.63)" fill="#fd7e14"/><path d="M12.336,33.1H9.424c-.028-1.43-.175-6.307-.84-7.937a.315.315,0,0,0-.259-.225.294.294,0,0,0-.276.189.5.5,0,0,0,0,.4c.692,1.711.769,7.905.769,7.968v6.307a.358.358,0,0,0,.3.394.358.358,0,0,0,.3-.394v-3.29h3.45v3.285a.315.315,0,1,0,.609,0V34.589A1.352,1.352,0,0,0,12.336,33.1ZM9.424,35.732v-1.84h2.912a.633.633,0,0,1,.538.7v1.143Z" transform="translate(0 0)" fill="#fd7e14"/><path d="M71.318,25.049a.274.274,0,0,0-.406.163c-.672,1.633-.818,6.512-.852,7.942H67.147A1.352,1.352,0,0,0,66,34.639v5.219a.315.315,0,1,0,.609,0V36.572h3.45v3.286a.315.315,0,1,0,.609,0v-6.31c0-.063.077-6.26.777-7.971A.458.458,0,0,0,71.318,25.049ZM66.609,35.783V34.639a.633.633,0,0,1,.538-.7h2.912v1.84Z" transform="translate(-40.778 -0.051)" fill="#fd7e14"/></g></g></svg>