<svg xmlns="http://www.w3.org/2000/svg" width="36.697" height="25" viewBox="0 0 36.697 25"><g transform="translate(-8.004 -24.942)"><path d="M51.18,34.328c0-2.351-6.038-3.578-12.008-3.578s-12,1.206-12,3.578c0,2.26,5.582,3.47,11.313,3.574V53.193a.79.79,0,0,0,1.555,0V37.876C45.708,37.763,51.18,36.544,51.18,34.328Zm-22.456,0c0-.772,3.69-2.277,10.453-2.277s10.448,1.483,10.448,2.277S45.936,36.6,39.173,36.6,28.725,35.083,28.725,34.328Z" transform="translate(-12.877 -3.902)" fill="#ff3fcb"/><path d="M15.009,38.139H10.3c-.046-2.312-.282-10.2-1.359-12.832a.509.509,0,0,0-.419-.364.475.475,0,0,0-.446.305.8.8,0,0,0,0,.654c1.119,2.766,1.244,12.781,1.244,12.883v10.2a.579.579,0,0,0,.492.637.579.579,0,0,0,.492-.637v-5.32h5.579v5.311a.579.579,0,0,0,.492.637.579.579,0,0,0,.492-.637V40.539a2.185,2.185,0,0,0-1.854-2.4ZM10.3,42.388V39.413h4.709a1.023,1.023,0,0,1,.87,1.126v1.848Z" transform="translate(0 0)" fill="#ff3fcb"/><path d="M74.6,25.076a.442.442,0,0,0-.656.264c-1.086,2.64-1.322,10.529-1.378,12.841H67.854A2.186,2.186,0,0,0,66,40.582v8.437a.509.509,0,1,0,.984,0V43.706h5.578v5.313a.509.509,0,1,0,.984,0v-10.2c0-.1.125-10.121,1.257-12.888A.74.74,0,0,0,74.6,25.076ZM66.984,42.431V40.582a1.023,1.023,0,0,1,.87-1.126h4.709v2.975Z" transform="translate(-30.157 -0.043)" fill="#ff3fcb"/></g></svg>