<svg xmlns="http://www.w3.org/2000/svg" width="10.673" height="10.673" viewBox="0 0 10.673 10.673"><g transform="translate(-21.334 -42.667)"><path d="M31.5,42.667h-.012l-3.556.01a1.338,1.338,0,0,0-.915.363l-5.435,5.1a.8.8,0,0,0-.018,1.147l3.824,3.824a.792.792,0,0,0,.564.234h.013a.792.792,0,0,0,.57-.252l5.1-5.435A1.338,1.338,0,0,0,32,46.738l.01-3.567a.523.523,0,0,0-.5-.5Zm-.015,4.069a.832.832,0,0,1-.226.569l-5.1,5.435a.288.288,0,0,1-.207.092.276.276,0,0,1-.21-.085l-3.824-3.824a.29.29,0,0,1,.007-.417l5.435-5.1a.831.831,0,0,1,.568-.226l3.546-.01c.009,0,.015.007.015.005Z" fill="#402b8c"/><path d="M167.948,212.834a.254.254,0,0,0-.359,0l-.229.229a1.233,1.233,0,0,0-.274-.133.887.887,0,0,0-.912.164,1.052,1.052,0,0,0-.039,1.243c.019.043.037.081.05.115s.041.1.066.153c.151.338.2.523.06.662a.4.4,0,0,1-.395.04.939.939,0,0,1-.584-.8.254.254,0,0,0-.5.077,1.67,1.67,0,0,0,.286.723l-.22.22a.254.254,0,0,0,.359.359l.229-.229a1.233,1.233,0,0,0,.274.133,1.094,1.094,0,0,0,.34.056.8.8,0,0,0,.573-.22,1.039,1.039,0,0,0,.045-1.229c-.021-.047-.04-.09-.056-.129s-.037-.088-.06-.14c-.126-.28-.217-.523-.065-.676a.4.4,0,0,1,.395-.04.939.939,0,0,1,.584.8.254.254,0,1,0,.5-.077,1.669,1.669,0,0,0-.286-.723l.22-.22A.254.254,0,0,0,167.948,212.834Z" transform="translate(-140.067 -166.041)" fill="#402b8c"/><path d="M338.109,110.645a.762.762,0,1,0,.762.762A.762.762,0,0,0,338.109,110.645Zm0,1.016a.254.254,0,1,1,.254-.254.254.254,0,0,1-.254.254Z" transform="translate(-308.484 -66.358)" fill="#402b8c"/></g></svg>