<svg xmlns="http://www.w3.org/2000/svg" width="27.254" height="15.406" viewBox="0 0 27.254 15.406"><g transform="translate(-2.742 -22.298)"><path d="M33.433,50.437a6.4,6.4,0,0,0-6.393,6.392.435.435,0,0,0,.435.435H39.39a.435.435,0,0,0,.435-.435A6.4,6.4,0,0,0,33.433,50.437Zm-5.506,5.958a5.523,5.523,0,0,1,11.012,0Z" transform="translate(-17.081 -19.809)" fill="#402b8c" stroke="#402b8c" stroke-width="0.5"/><path d="M39.545,30.054A3.753,3.753,0,1,0,35.792,26.3,3.757,3.757,0,0,0,39.545,30.054Zm0-6.637A2.884,2.884,0,1,1,36.661,26.3,2.887,2.887,0,0,1,39.545,23.417Z" transform="translate(-23.298)" fill="#402b8c" stroke="#402b8c" stroke-width="0.5"/><path d="M7.856,56.583a4,4,0,0,1,2.025.55.435.435,0,1,0,.44-.749,4.865,4.865,0,0,0-7.329,4.194.435.435,0,0,0,.435.435H8.934a.435.435,0,1,0,0-.869H3.885A4,4,0,0,1,7.856,56.583Z" transform="translate(0 -23.558)" fill="#402b8c" stroke="#402b8c" stroke-width="0.5"/><path d="M12.4,39.093a2.9,2.9,0,1,0-2.9-2.9A2.9,2.9,0,0,0,12.4,39.093Zm0-4.933a2.032,2.032,0,1,1-2.032,2.032A2.034,2.034,0,0,1,12.4,34.16Z" transform="translate(-4.623 -7.631)" fill="#402b8c" stroke="#402b8c" stroke-width="0.5"/><path d="M71.982,55.714a4.87,4.87,0,0,0-2.465.67.434.434,0,1,0,.44.749,4,4,0,0,1,6,3.01H70.9a.435.435,0,0,0,0,.869h5.507a.435.435,0,0,0,.435-.435A4.869,4.869,0,0,0,71.982,55.714Z" transform="translate(-47.1 -23.558)" fill="#402b8c" stroke="#402b8c" stroke-width="0.5"/><path d="M71.706,39.093a2.9,2.9,0,1,0-2.9-2.9A2.9,2.9,0,0,0,71.706,39.093Zm0-4.933a2.032,2.032,0,1,1-2.032,2.032A2.034,2.034,0,0,1,71.706,34.16Z" transform="translate(-46.747 -7.631)" fill="#402b8c" stroke="#402b8c" stroke-width="0.5"/></g></svg>