<svg xmlns="http://www.w3.org/2000/svg" width="40" height="39.646" viewBox="0 0 40 39.646"><g transform="translate(-29 -365)"><rect width="40" height="39.646" rx="19.823" transform="translate(29 365)" fill="#ff3fcb" opacity="0.1"/><g transform="translate(2 -18.552)"><g transform="translate(36.5 392.747)"><path d="M1.2,1.634,12.752,4.52a3.525,3.525,0,0,1,2.53,3.242V18.2a1.976,1.976,0,0,1-2.539,2.01l-9.7-2.282A3.463,3.463,0,0,1,.5,14.718V3.414A2.617,2.617,0,0,1,3.109.805H17.891A2.617,2.617,0,0,1,20.5,3.414v9.565a2.616,2.616,0,0,1-2.609,2.609H15.283" transform="translate(0 0)" fill="none" stroke="#ff3fcb" stroke-linecap="round" stroke-linejoin="round" stroke-width="1"/><line x2="10" transform="translate(7.423 3.805)" fill="none" stroke="#ff3fcb" stroke-linecap="round" stroke-linejoin="round" stroke-width="1"/><circle cx="2" cy="2" r="2" transform="translate(9.342 10.058)" fill="none" stroke="#ff3fcb" stroke-linecap="round" stroke-linejoin="round" stroke-width="1"/><line x2="2" transform="translate(15.071 7.762)" fill="none" stroke="#ff3fcb" stroke-linecap="round" stroke-linejoin="round" stroke-width="1"/></g></g></g></svg>