<svg xmlns="http://www.w3.org/2000/svg" width="53" height="53" viewBox="0 0 53 53"><g transform="translate(-28 -872)"><g transform="translate(28 872)" fill="#fff" stroke="#402b8c" stroke-width="2"><circle cx="26.5" cy="26.5" r="26.5" stroke="none"/><circle cx="26.5" cy="26.5" r="25.5" fill="none"/></g><path d="M52.258,41.352l-2.28-4.56a7.7,7.7,0,0,0-5.016-4.043A8.637,8.637,0,0,0,46.489,31.6a.7.7,0,0,0,.088-.889A9.2,9.2,0,0,1,45.4,27.892a2.805,2.805,0,0,0,.333-.564,2.82,2.82,0,0,0,1.668-2.57V23.349a2.821,2.821,0,0,0-1.761-2.611V19.474a8.807,8.807,0,1,0-17.614,0v1.264a2.821,2.821,0,0,0-1.761,2.611v1.409a2.821,2.821,0,0,0,2.07,2.714,8.937,8.937,0,0,1-1.247,3.236.7.7,0,0,0,.088.889A8.637,8.637,0,0,0,28.7,32.749a7.7,7.7,0,0,0-5.016,4.043l-2.28,4.56a.7.7,0,0,0,.63,1.02H51.628a.7.7,0,0,0,.63-1.02ZM31.2,21.914c1.521-.091,5.146-.511,7.6-2.424a5.7,5.7,0,0,0,3.677,2.4v3.573a5.6,5.6,0,0,1-.415,2.114H40.91A1.762,1.762,0,0,0,39.3,26.519H37.889a1.761,1.761,0,1,0,0,3.523H39.3a1.762,1.762,0,0,0,1.612-1.057h.315A5.632,5.632,0,0,1,31.2,25.462Zm8.455,6.366a.353.353,0,0,1-.352.352H37.889a.352.352,0,1,1,0-.7H39.3A.353.353,0,0,1,39.65,28.281Zm-2.818,4.227a7,7,0,0,0,2.818-.592v1.51a2.1,2.1,0,0,1-.611,1.486l-2.207,2.23-2.207-2.23a2.1,2.1,0,0,1-.611-1.486v-1.51A7,7,0,0,0,36.832,32.508Zm-4.158,4.406.557-1.486a3.553,3.553,0,0,0,.392.476l1.7,1.719-1.9.238a.7.7,0,0,1-.747-.947ZM40.041,35.9a3.559,3.559,0,0,0,.392-.476l.558,1.487a.7.7,0,0,1-.747.947l-1.9-.238Zm1.019-3.4V31.1s0-.008,0-.012a7.088,7.088,0,0,0,1.866-2.1h.249a2.8,2.8,0,0,0,1-.193,10.875,10.875,0,0,0,.908,2.162A6.775,6.775,0,0,1,41.059,32.508Zm4.932-7.75a1.411,1.411,0,0,1-1.409,1.409h-.74c.023-.232.036-.467.036-.7V21.94h.7a1.411,1.411,0,0,1,1.409,1.409ZM36.832,12.076a7.406,7.406,0,0,1,7.4,7.4v1.057H43.173c-2.337,0-3.586-2.406-3.6-2.429a.7.7,0,0,0-1.128-.183c-2.575,2.575-7.9,2.612-7.957,2.612H29.434V19.474a7.406,7.406,0,0,1,7.4-7.4ZM27.673,24.758V23.349a1.411,1.411,0,0,1,1.409-1.409h.7v3.523c0,.238.013.473.036.7h-.74A1.411,1.411,0,0,1,27.673,24.758Zm2.067,2.818h.372a7.064,7.064,0,0,0,2.494,3.51s0,.008,0,.012v1.409a6.818,6.818,0,0,1-4.025-1.556,9.735,9.735,0,0,0,1.16-3.376ZM23.177,40.962l1.77-3.54a6.307,6.307,0,0,1,5.671-3.505h1.675l-.938,2.5a2.114,2.114,0,0,0,2.241,2.84l2.532-.317v2.02Zm14.36,0v-2.02l2.532.317a2.141,2.141,0,0,0,.268.017,2.114,2.114,0,0,0,1.973-2.856l-.938-2.5h1.675a6.307,6.307,0,0,1,5.671,3.505l1.77,3.54Z" transform="translate(17.668 870.158)" fill="#402b8c"/></g></svg>