<svg xmlns="http://www.w3.org/2000/svg" width="22" height="22.5" viewBox="0 0 22 22.5"><path d="M43.279,32.443l-1.618-3.236a5.466,5.466,0,0,0-3.56-2.869,6.129,6.129,0,0,0,1.084-.818.5.5,0,0,0,.062-.631,6.526,6.526,0,0,1-.836-2,1.991,1.991,0,0,0,.236-.4,2,2,0,0,0,1.184-1.824v-1a2,2,0,0,0-1.25-1.853v-.9a6.25,6.25,0,1,0-12.5,0v.9a2,2,0,0,0-1.25,1.853v1A2,2,0,0,0,26.3,22.593a6.343,6.343,0,0,1-.885,2.3.5.5,0,0,0,.062.631,6.129,6.129,0,0,0,1.084.818A5.466,5.466,0,0,0,23,29.207l-1.618,3.236a.5.5,0,0,0,.447.724h21a.5.5,0,0,0,.447-.724ZM28.332,18.649a10.361,10.361,0,0,0,5.391-1.72,4.042,4.042,0,0,0,2.609,1.7v2.536a3.975,3.975,0,0,1-.295,1.5h-.811a1.251,1.251,0,0,0-1.144-.75h-1a1.25,1.25,0,1,0,0,2.5h1a1.251,1.251,0,0,0,1.144-.75h.223a4,4,0,0,1-7.117-2.5Zm6,4.518a.25.25,0,0,1-.25.25h-1a.25.25,0,1,1,0-.5h1A.25.25,0,0,1,34.332,23.167Zm-2,3a4.968,4.968,0,0,0,2-.42v1.072a1.49,1.49,0,0,1-.434,1.055l-1.566,1.583-1.566-1.583a1.49,1.49,0,0,1-.434-1.055V25.747A4.967,4.967,0,0,0,32.332,26.167Zm-2.951,3.127.4-1.055a2.522,2.522,0,0,0,.278.338l1.207,1.22-1.351.169a.5.5,0,0,1-.53-.672Zm5.228-.717a2.526,2.526,0,0,0,.278-.338l.4,1.055a.5.5,0,0,1-.53.672L33.4,29.8Zm.723-2.41v-1s0-.006,0-.009a5.03,5.03,0,0,0,1.324-1.491h.177a1.985,1.985,0,0,0,.713-.137,7.718,7.718,0,0,0,.644,1.534A4.808,4.808,0,0,1,35.332,26.167Zm3.5-5.5a1,1,0,0,1-1,1h-.525c.016-.165.025-.331.025-.5v-2.5h.5a1,1,0,0,1,1,1Zm-6.5-9a5.256,5.256,0,0,1,5.25,5.25v.75h-.75a3.223,3.223,0,0,1-2.553-1.724.5.5,0,0,0-.8-.13c-1.827,1.827-5.609,1.854-5.647,1.854h-.75v-.75a5.256,5.256,0,0,1,5.25-5.25Zm-6.5,9v-1a1,1,0,0,1,1-1h.5v2.5c0,.169.009.335.025.5h-.525A1,1,0,0,1,25.832,20.667Zm1.467,2h.264a5.013,5.013,0,0,0,1.77,2.491s0,.006,0,.009v1a4.839,4.839,0,0,1-2.856-1.1,6.909,6.909,0,0,0,.823-2.4Zm-4.658,9.5L23.9,29.654a4.476,4.476,0,0,1,4.025-2.488h1.188l-.666,1.776a1.5,1.5,0,0,0,1.59,2.015l1.8-.225v1.434Zm10.191,0V30.733l1.8.225a1.519,1.519,0,0,0,.19.012,1.5,1.5,0,0,0,1.4-2.027l-.666-1.776h1.188a4.476,4.476,0,0,1,4.025,2.488l1.256,2.512Z" transform="translate(-21.332 -10.667)" fill="#402b8c"/></svg>