<svg xmlns="http://www.w3.org/2000/svg" xmlns:xlink="http://www.w3.org/1999/xlink" width="245" height="182" viewBox="0 0 245 182"><defs><linearGradient id="a" x1="0.5" x2="0.5" y2="1" gradientUnits="objectBoundingBox"><stop offset="0.031" stop-color="#402b8c"/><stop offset="0.124" stop-color="#462b8e"/><stop offset="0.256" stop-color="#592d94"/><stop offset="0.411" stop-color="#77309e"/><stop offset="0.584" stop-color="#a235ac"/><stop offset="0.77" stop-color="#d83abe"/><stop offset="0.89" stop-color="#ff3fcb"/></linearGradient></defs><g transform="translate(-80 -1022)"><rect width="245" height="182" transform="translate(80 1022)" fill="#fff"/><g transform="translate(4 6.711)"><g transform="translate(173 1062.289)"><g transform="translate(7 3)"><path d="M32.329,3H11.058A4.062,4.062,0,0,0,7,7.067V53.643a4.053,4.053,0,0,0,4.047,4.067H41.453A4.05,4.05,0,0,0,45.5,53.677V17.184L33.342,3ZM31.316,5.026H11.044A2.03,2.03,0,0,0,9.026,7.043V53.667a2.031,2.031,0,0,0,2.026,2.017H41.447a2.02,2.02,0,0,0,2.026-2.013V19.211H35.364a4.042,4.042,0,0,1-4.048-4.065V5.026Zm2.026,1.013v9.1a2.038,2.038,0,0,0,2.02,2.044h7.5L33.342,6.039ZM23.211,25.289v2.026H39.421V25.289ZM13.079,23.263v6.079h6.079V23.263Zm2.026,2.026v2.026h2.026V25.289Zm-2.026,8.105v6.079h6.079V33.395Zm2.026,2.026v2.026h2.026V35.421Zm8.105,0v2.026H39.421V35.421ZM13.079,43.526v6.079h6.079V43.526Zm2.026,2.026v2.026h2.026V45.553Zm8.105,0v2.026H39.421V45.553Z" transform="translate(-7 -3)" fill-rule="evenodd" fill="url(#a)"/></g></g><text transform="translate(199 1144)" fill="#402b8c" font-size="14" font-family="Roboto-Regular, Roboto"><tspan x="-25.208" y="0">No Data</tspan></text></g></g></svg>